<svg width="30" height="30" xmlns="http://www.w3.org/2000/svg">
   <path d="m24.30933,6.0108l-15,0a2.648,2.648 0 0 0 -2.65,2.65l0,0.35l-0.35,0a2.648,2.648 0 0 0 -2.65,2.65l0,10a2.648,2.648 0 0 0 2.65,2.65l15,0a2.655,2.655 0 0 0 2.65,-2.65l0,-0.35l0.35,0a2.655,2.655 0 0 0 2.65,-2.65l0,-10a2.655,2.655 0 0 0 -2.65,-2.65zm-1.65,15.65a1.357,1.357 0 0 1 -1.35,1.35l-15,0a1.351,1.351 0 0 1 -1.35,-1.35l0,-10a1.344,1.344 0 0 1 1.35,-1.35l0.35,0l0,8.35a2.648,2.648 0 0 0 2.65,2.65l13.35,0l0,0.35zm3,-3a1.357,1.357 0 0 1 -1.35,1.35l-15,0a1.351,1.351 0 0 1 -1.35,-1.35l0,-10a1.344,1.344 0 0 1 1.35,-1.35l15,0a1.351,1.351 0 0 1 1.35,1.35l0,10z"/>
</svg>
