<?xml version="1.0" encoding="UTF-8"?>
<svg
    xmlns="http://www.w3.org/2000/svg" xmlns:xlink="http://www.w3.org/1999/xlink"
    width="30px"
    height="30px"
    viewBox="0 0 30 30">
    <path d="M 23.214844 3.40625 L 23.214844 5.296875 L 26.375 5.296875 L 26.375 5.300781 C 27.371094 5.304688 28.277344 5.683594 28.925781 6.300781 C 29.574219 6.914062 29.980469 7.761719 29.980469 8.699219 L 29.984375 8.699219 L 29.984375 26.59375 L 29.980469 26.59375 C 29.980469 27.53125 29.574219 28.382812 28.921875 29 C 28.265625 29.613281 27.371094 29.992188 26.375 29.996094 L 26.375 30 L 10.394531 30 L 10.394531 29.996094 C 9.398438 29.992188 8.496094 29.613281 7.84375 28.996094 C 7.195312 28.382812 6.792969 27.535156 6.789062 26.597656 L 6.785156 26.597656 L 6.785156 22.585938 L 3.625 22.585938 L 3.625 22.582031 C 2.632812 22.578125 1.722656 22.199219 1.074219 21.578125 C 0.425781 20.96875 0.0195312 20.121094 0.0195312 19.183594 L 0.015625 19.183594 L 0.015625 3.40625 L 0.0195312 3.40625 C 0.0195312 2.464844 0.429688 1.613281 1.078125 1 C 1.734375 0.386719 2.628906 0.0078125 3.625 0.00390625 L 3.625 0 L 19.605469 0 L 19.605469 0.00390625 C 20.601562 0.0078125 21.503906 0.386719 22.15625 1.003906 C 22.804688 1.617188 23.207031 2.464844 23.210938 3.402344 L 23.214844 3.402344 Z M 20.476562 5.296875 L 20.476562 3.402344 L 20.484375 3.402344 C 20.484375 3.179688 20.382812 2.976562 20.21875 2.824219 C 20.0625 2.675781 19.84375 2.582031 19.609375 2.582031 L 19.609375 2.585938 L 3.625 2.585938 L 3.625 2.582031 C 3.390625 2.582031 3.171875 2.675781 3.011719 2.828125 C 2.855469 2.976562 2.753906 3.183594 2.753906 3.40625 L 2.757812 3.40625 L 2.757812 19.183594 L 2.753906 19.183594 C 2.753906 19.40625 2.855469 19.609375 3.011719 19.761719 C 3.171875 19.910156 3.394531 20.003906 3.628906 20.003906 L 3.628906 20 L 6.789062 20 L 6.789062 8.703125 L 6.792969 8.703125 C 6.796875 7.761719 7.203125 6.910156 7.855469 6.292969 C 8.503906 5.683594 9.398438 5.304688 10.394531 5.300781 L 10.394531 5.296875 Z M 27.242188 26.59375 L 27.242188 8.699219 L 27.25 8.699219 C 27.25 8.476562 27.144531 8.269531 26.988281 8.121094 C 26.828125 7.972656 26.609375 7.875 26.375 7.875 L 26.375 7.882812 L 10.390625 7.882812 L 10.390625 7.875 C 10.15625 7.875 9.941406 7.972656 9.78125 8.121094 C 9.621094 8.269531 9.523438 8.480469 9.523438 8.699219 L 9.527344 8.699219 L 9.527344 26.597656 L 9.523438 26.597656 C 9.523438 26.820312 9.621094 27.023438 9.78125 27.175781 C 9.941406 27.324219 10.160156 27.417969 10.394531 27.417969 L 10.394531 27.414062 L 26.375 27.414062 L 26.375 27.417969 C 26.609375 27.417969 26.828125 27.324219 26.992188 27.171875 C 27.144531 27.023438 27.25 26.816406 27.25 26.59375 Z M 27.242188 26.59375 "/>
</svg>
