<svg id="icon-date-time-picker" xmlns="http://www.w3.org/2000/svg" width="30" height="30" viewBox="0 0 30 30">
  <g transform="translate(-382.18 -96.15)">
    <rect width="2" height="2" transform="translate(392.179 109.645)"/>
    <path d="M406.18,110.41v-6.26a2,2,0,0,0-2-2h-1v-1a1,1,0,0,0-2,0v1h-8v-1a1,1,0,0,0-2,0v1h-1a1.993,1.993,0,0,0-2,2v14a2,2,0,0,0,1.99,2h6.24a6.455,6.455,0,0,0,3.09,2.46,7.292,7.292,0,0,0,2.68.54,7,7,0,0,0,4-12.74Zm-10.54,8.24h-4.96a.992.992,0,0,1-1-.98V107.15h15v2.47a6.7,6.7,0,0,0-2.5-.47,7,7,0,0,0-7,7A6.9,6.9,0,0,0,395.64,118.65Zm6.54,3a6.155,6.155,0,0,1-2.16-.44l-.01-.01a4.924,4.924,0,0,1-2.34-1.86,5.6,5.6,0,0,1-.99-3.19,5.5,5.5,0,1,1,5.5,5.5Z"/>
    <path d="M405.18,115.4h-2.25v-2.25a.75.75,0,0,0-1.5,0v3a.755.755,0,0,0,.75.75h3a.75.75,0,1,0,0-1.5Z"/>
  </g>
</svg>
