<?xml version="1.0" encoding="utf-8"?>
<svg xmlns="http://www.w3.org/2000/svg"
     x="0px" y="0px"
	 viewBox="0 0 30 30">
	<path d="M22.5,11c-0.1-0.1-0.3-0.2-0.5-0.2H8.1c-0.2,0-0.4,0-0.5,0.1c-0.1,0.1-0.2,0.3-0.2,0.5l1.4,10.9c0.3,1.3,1.5,2.3,2.9,2.2
		h6.9c0.1,0,0.1,0,0.2,0c1.3,0,2.5-1,2.7-2.3l1.2-10.9C22.7,11.3,22.6,11.1,22.5,11L22.5,11z M20.1,22.3c-0.1,0.7-0.8,1.2-1.5,1.1
		h-6.9c-0.7,0.1-1.3-0.4-1.5-1.1L8.8,12.1h12.3L20.1,22.3z"/>
	<path d="M23,7.7L23,7.7h-4.9V7.1c0.1-0.9-0.6-1.6-1.5-1.7h-3.2c-0.9,0-1.6,0.7-1.5,1.6v0.8H7c-0.4,0-0.7,0.3-0.6,0.7
		c0,0.3,0.3,0.6,0.6,0.6h16c0.4,0,0.7-0.3,0.6-0.7C23.6,8,23.4,7.8,23,7.7z M16.8,7l0,0.8h-3.6V7c0-0.1,0.1-0.3,0.2-0.3
		c0,0,0,0,0.1,0h3.1c0.1,0,0.1,0,0.2,0.1C16.8,6.8,16.8,6.9,16.8,7L16.8,7z"/>
	<path d="M13,21.7c0.4,0,0.7-0.3,0.7-0.7v-6c0-0.4-0.3-0.7-0.7-0.7s-0.7,0.3-0.7,0.7v6C12.3,21.4,12.6,21.7,13,21.7z"/>
	<path d="M17,21.7c0.4,0,0.7-0.3,0.7-0.7v-6c0-0.4-0.3-0.7-0.7-0.7s-0.7,0.3-0.7,0.7v6C16.3,21.4,16.6,21.7,17,21.7z"/>
</svg>
