<?xml version="1.0" encoding="utf-8"?>
<!-- Generator: Adobe Illustrator 23.0.1, SVG Export Plug-In . SVG Version: 6.00 Build 0)  -->
<svg version="1.1" id="Слой_1" xmlns="http://www.w3.org/2000/svg" xmlns:xlink="http://www.w3.org/1999/xlink" x="0px" y="0px"
	 viewBox="0 0 30 30" style="enable-background:new 0 0 30 30;" xml:space="preserve">
<path d="M13.6,21l8.5-8.5l0.9-1l0.6-0.6c1-1,1-2.7,0-3.7c0,0,0,0,0,0l-0.8-0.9c-1-1-2.7-1-3.8,0L17.4,8L9,16.4l-0.6,0.7l-1.6,5.3
	c-0.1,0.2,0,0.5,0.2,0.6c0.1,0.1,0.3,0.2,0.5,0.2c0.1,0,0.1,0,0.2,0l5.3-1.6 M8.3,21.7L9.2,19l1.9,1.9L8.3,21.7z M12.7,20.1
	c-0.1,0.1-0.2,0.1-0.2,0.1c-0.1,0-0.2,0-0.2-0.1l-2.3-2.3c-0.1-0.1-0.1-0.4,0-0.5l8.5-8.5l0,0l2.8,2.8L12.7,20.1z M22.6,10.2
	l-0.6,0.6l0,0L19.3,8l0,0l0.6-0.6c0.5-0.5,1.4-0.5,1.9,0c0,0,0,0,0,0l0.8,0.9C23.2,8.8,23.2,9.6,22.6,10.2
	C22.6,10.2,22.6,10.2,22.6,10.2z"/>
</svg>
