<svg xmlns="http://www.w3.org/2000/svg" width="30" height="30" viewBox="0 0 30 30">
    <path d="M15 8c-4.282 0-8.018 2.745-10 6.818 1.982 4.073 5.718 6.818 10 6.818s8.018-2.745 10-6.818C23.018 10.745 19.282 8 15 8zm5.182 10.782a8.866 8.866 0 0 1-10.364 0 11.387 11.387 0 0 1-3.491-3.964 11.387 11.387 0 0 1 3.491-3.964 8.866 8.866 0 0 1 10.364 0 11.387 11.387 0 0 1 3.491 3.964 11.387 11.387 0 0 1-3.491 3.964z"/>
    <path d="M15 11.436a3.455 3.455 0 1 0 3.464 3.455A3.46 3.46 0 0 0 15 11.436z"/>
</svg>

