<svg width="30" height="30" xmlns="http://www.w3.org/2000/svg">
  <path d="M 3.601562 3.601562 L 3.601562 10.800781 C 3.597656 11.015625 3.710938 11.21875 3.898438 11.328125 C 4.085938 11.4375 4.316406 11.4375 4.503906 11.328125 C 4.6875 11.21875 4.804688 11.015625 4.800781 10.800781 L 4.800781 4.800781 L 10.800781 4.800781 C 11.015625 4.804688 11.21875 4.6875 11.328125 4.503906 C 11.4375 4.316406 11.4375 4.085938 11.328125 3.898438 C 11.21875 3.710938 11.015625 3.597656 10.800781 3.601562 Z M 19.199219 3.601562 C 18.875 3.597656 18.609375 3.855469 18.597656 4.179688 C 18.585938 4.503906 18.835938 4.777344 19.15625 4.800781 C 19.171875 4.800781 19.1875 4.800781 19.199219 4.800781 L 25.199219 4.800781 L 25.199219 10.800781 C 25.195312 11.113281 25.4375 11.378906 25.75 11.40625 C 25.769531 11.40625 25.789062 11.410156 25.808594 11.410156 C 26.140625 11.402344 26.40625 11.132812 26.398438 10.800781 L 26.398438 3.601562 Z M 4.191406 19.191406 C 3.859375 19.195312 3.59375 19.46875 3.601562 19.800781 L 3.601562 27 L 10.800781 27 C 10.820312 27 10.839844 27 10.859375 26.996094 C 11.179688 26.96875 11.421875 26.691406 11.40625 26.371094 C 11.390625 26.046875 11.121094 25.796875 10.800781 25.800781 L 4.800781 25.800781 L 4.800781 19.800781 C 4.800781 19.636719 4.738281 19.480469 4.625 19.367188 C 4.507812 19.253906 4.351562 19.1875 4.191406 19.191406 Z M 25.789062 19.191406 C 25.460938 19.195312 25.195312 19.46875 25.199219 19.800781 L 25.199219 25.800781 L 19.199219 25.800781 C 18.984375 25.796875 18.78125 25.910156 18.671875 26.097656 C 18.5625 26.285156 18.5625 26.515625 18.671875 26.703125 C 18.78125 26.890625 18.984375 27.003906 19.199219 27 L 26.398438 27 L 26.398438 19.800781 C 26.402344 19.636719 26.339844 19.480469 26.222656 19.367188 C 26.109375 19.253906 25.953125 19.1875 25.789062 19.191406 Z M 25.789062 19.191406 "/>
</svg>
