<svg aria-hidden="true" style="position: absolute; width: 0; height: 0; overflow: hidden;"
     xmlns="http://www.w3.org/2000/svg">
  <defs>
    <symbol id="icon-refresh" viewBox="0 0 30 30">
      <path d="M23.8,15c0,4.8-3.9,8.7-8.7,8.7c0,0,0,0,0,0h-0.4c-4.8-0.2-8.6-4.3-8.4-9.1c0.2-4.8,4.3-8.6,9.1-8.4
			c2.3,0.1,4.4,1.1,6,2.7V7c0-0.4,0.3-0.8,0.8-0.8s0.8,0.3,0.8,0.8v4.1c0,0.4-0.3,0.8-0.7,0.8c0,0,0,0,0,0h-4.1
			c-0.4,0-0.8-0.3-0.8-0.8c0-0.4,0.3-0.8,0.8-0.8h2.4c-1.4-1.6-3.4-2.5-5.5-2.5h0c-4,0-7.2,3.2-7.2,7.2c0,4,3.2,7.2,7.2,7.2
			s7.2-3.2,7.2-7.2c0-0.4,0.3-0.8,0.8-0.8h0c0.2,0,0.4,0.1,0.5,0.2C23.7,14.6,23.8,14.8,23.8,15L23.8,15z"/>
    </symbol>
    <symbol id="icon-add" viewBox="0 0 30 30">
      <polygon
        points="15.9,14.1 15.9,6 14.1,6 14.1,14.1 6,14.1 6,15.9 14.1,15.9 14.1,24 15.9,24 15.9,15.9 24,15.9 24,14.1 "/>
    </symbol>
    <symbol id="icon-close" viewBox="0 0 30 30">
      <polygon
        points="22.6,8.6 21.4,7.4 15,13.7 8.6,7.4 7.4,8.6 13.7,15 7.4,21.4 8.6,22.6 15,16.3 21.4,22.6 22.6,21.4 16.3,15 "/>
    </symbol>
    <symbol id="icon-delete" viewBox="0 0 30 30">
      <path d="M22.5,11c-0.1-0.1-0.3-0.2-0.5-0.2H8.1c-0.2,0-0.4,0-0.5,0.1c-0.1,0.1-0.2,0.3-0.2,0.5l1.4,10.9c0.3,1.3,1.5,2.3,2.9,2.2
		h6.9c0.1,0,0.1,0,0.2,0c1.3,0,2.5-1,2.7-2.3l1.2-10.9C22.7,11.3,22.6,11.1,22.5,11L22.5,11z M20.1,22.3c-0.1,0.7-0.8,1.2-1.5,1.1
		h-6.9c-0.7,0.1-1.3-0.4-1.5-1.1L8.8,12.1h12.3L20.1,22.3z"/>
      <path d="M23,7.7L23,7.7h-4.9V7.1c0.1-0.9-0.6-1.6-1.5-1.7h-3.2c-0.9,0-1.6,0.7-1.5,1.6v0.8H7c-0.4,0-0.7,0.3-0.6,0.7
		c0,0.3,0.3,0.6,0.6,0.6h16c0.4,0,0.7-0.3,0.6-0.7C23.6,8,23.4,7.8,23,7.7z M16.8,7l0,0.8h-3.6V7c0-0.1,0.1-0.3,0.2-0.3
		c0,0,0,0,0.1,0h3.1c0.1,0,0.1,0,0.2,0.1C16.8,6.8,16.8,6.9,16.8,7L16.8,7z"/>
      <path
        d="M13,21.7c0.4,0,0.7-0.3,0.7-0.7v-6c0-0.4-0.3-0.7-0.7-0.7s-0.7,0.3-0.7,0.7v6C12.3,21.4,12.6,21.7,13,21.7z"/>
      <path
        d="M17,21.7c0.4,0,0.7-0.3,0.7-0.7v-6c0-0.4-0.3-0.7-0.7-0.7s-0.7,0.3-0.7,0.7v6C16.3,21.4,16.6,21.7,17,21.7z"/>
    </symbol>
    <symbol id="icon-edit" viewBox="0 0 30 30">
      <path d="M13.6,21l8.5-8.5l0.9-1l0.6-0.6c1-1,1-2.7,0-3.7c0,0,0,0,0,0l-0.8-0.9c-1-1-2.7-1-3.8,0L17.4,8L9,16.4l-0.6,0.7l-1.6,5.3
	c-0.1,0.2,0,0.5,0.2,0.6c0.1,0.1,0.3,0.2,0.5,0.2c0.1,0,0.1,0,0.2,0l5.3-1.6 M8.3,21.7L9.2,19l1.9,1.9L8.3,21.7z M12.7,20.1
	c-0.1,0.1-0.2,0.1-0.2,0.1c-0.1,0-0.2,0-0.2-0.1l-2.3-2.3c-0.1-0.1-0.1-0.4,0-0.5l8.5-8.5l0,0l2.8,2.8L12.7,20.1z M22.6,10.2
	l-0.6,0.6l0,0L19.3,8l0,0l0.6-0.6c0.5-0.5,1.4-0.5,1.9,0c0,0,0,0,0,0l0.8,0.9C23.2,8.8,23.2,9.6,22.6,10.2
	C22.6,10.2,22.6,10.2,22.6,10.2z"/>
    </symbol>
    <symbol id="icon-pin" viewBox="0 0 30 30">
      <path d="M25.4,9.1h-2.2c-0.3,0-0.5,0.2-0.5,0.5v0.5l-6-0.4l-0.1-0.2c0-0.3-0.3-1.5-0.7-1.5h-3c-0.1,0-0.2,0-0.2,0c0,0-0.1,0-0.1,0
	c0,0-0.1,0-0.1,0.1c-0.1,0.1-0.2,0.2-0.2,0.4V14c-2.6,0.4-8.2,0.7-10.8,1l10.8,1v5.5c0,0.1,0.1,0.3,0.2,0.4c0,0,0.1,0.1,0.1,0.1
	c0.1,0,0.1,0,0.2,0c0,0,0.1,0,0.1,0h3c0.4,0,0.7-1.2,0.7-1.5l0.1-0.2l6-0.4v0.5c0,0.3,0.2,0.5,0.5,0.5h2.2c0.3,0,0.5-0.2,0.5-0.5
	V9.6C25.9,9.3,25.7,9.1,25.4,9.1L25.4,9.1z M22.7,18.6L16.6,19l-0.8,0.1l-0.3,0.8L15.4,20l-0.1,0.2v0.2c0,0.1,0,0.1,0,0.2h-1.6V9.3
	h1.6c0,0.1,0,0.2,0,0.2v0.2l0.1,0.2l0.1,0.2l0.3,0.7l0.8,0.1l6.1,0.4L22.7,18.6z M24.8,19.6h-1v-9.2h1V19.6z"/>
    </symbol>
    <symbol id="icon-un-pin" viewBox="0 0 30 30">
      <path
        d="M25.707 13.44c0.213 0.213 0.533 0.213 0.747 0l1.387-1.387c0.213-0.213 0.213-0.533 0-0.747l-8.213-8.213c-0.213-0.213-0.533-0.213-0.747 0l-1.387 1.387c-0.213 0.213-0.213 0.533 0 0.747l8.213 8.213z"></path>
      <path
        d="M24.427 13.973v0l0.427-0.427-7.467-7.467-4.587 4.16-0.213-0.107c-0.213-0.213-1.387-0.96-1.6-0.64l-2.347 2.24c0 0.107-0.107 0.107-0.107 0.213 0 0 0 0 0 0.107 0 0 0 0.107 0 0.107 0 0.107 0 0.32 0.107 0.427l4.16 4.16c-1.813 2.24-5.76 6.72-7.467 8.96l8.853-7.467 0.107 0.107c-0.107 0.533-0.213 1.067-0.213 1.6 0 3.84 3.093 6.933 6.933 6.933s6.933-3.093 6.933-6.933c0-2.347-1.387-4.693-3.52-5.973zM26.987 20.907c-0.427 2.987-2.987 5.12-5.973 5.12-3.307 0-6.080-2.773-6.080-6.080 0-0.32 0-0.64 0.107-0.96 0.533-3.307 3.627-5.547 6.933-5.013s5.547 3.627 5.013 6.933z"></path>
      <path
        d="M23.147 16.853l-2.133 2.133-2.133-2.133-1.067 0.96 2.24 2.133-2.24 2.24 1.067 0.96 2.133-2.133 2.133 2.133 0.96-0.96-2.133-2.24 2.133-2.133z"></path>
    </symbol>
    <symbol id="icon-dashboard" viewBox="0 0 30 30">
      <path d="M15,25.3L14.6,25c-9-7.3-11.4-9.9-11.4-14c0-3.5,2.8-6.2,6.2-6.2c2.8,0,4.4,1.6,5.6,2.8c1.1-1.2,2.7-2.8,5.6-2.8
	c3.5,0,6.2,2.8,6.2,6.2c0,4.2-2.4,6.7-11.4,14L15,25.3z M9.4,6.1c-2.7,0-4.9,2.2-4.9,4.9c0,3.5,2.2,5.9,10.4,12.6
	c8.2-6.7,10.4-9,10.4-12.6c0-2.7-2.2-4.9-4.9-4.9c-2.4,0-3.7,1.5-4.8,2.6L15,9.6l-0.8-0.9C13.2,7.5,11.9,6.1,9.4,6.1z"/>
    </symbol>
    <symbol id="icon-eye-regular" viewBox="0 0 30 30">
      <path d="M15 8c-4.282 0-8.018 2.745-10 6.818 1.982 4.073 5.718 6.818 10 6.818s8.018-2.745 10-6.818C23.018 10.745 19.282 8 15 8zm5.182 10.782a8.866 8.866 0 0 1-10.364 0 11.387 11.387 0 0 1-3.491-3.964 11.387 11.387 0 0 1 3.491-3.964 8.866 8.866 0 0 1 10.364 0 11.387 11.387 0 0 1 3.491 3.964 11.387 11.387 0 0 1-3.491 3.964z"/>
      <path d="M15 11.436a3.455 3.455 0 1 0 3.464 3.455A3.46 3.46 0 0 0 15 11.436z"/>
    </symbol>
    <symbol id="icon-eye-slash-regular" viewBox="0 0 30 30">
      <g transform="translate(-1043 -169.709)">
        <path d="M1052.2,188.014a11.412,11.412,0,0,1-2.873-3.491,11.386,11.386,0,0,1,3.491-3.964,9.041,9.041,0,0,1,5.182-1.673,8.762,8.762,0,0,1,3.255.637l.945-.882a9.852,9.852,0,0,0-4.2-.936c-4.282,0-8.018,2.745-10,6.818a12.924,12.924,0,0,0,3.327,4.309Z"/>
        <path d="M1054.545,184.6a3.716,3.716,0,0,0,.164,1.063l4.564-4.273a3.285,3.285,0,0,0-1.273-.245A3.459,3.459,0,0,0,1054.545,184.6Z"/>
        <path d="M1064.591,180.159l1.6-1.5a.677.677,0,0,0,.036-.963.686.686,0,0,0-.963-.037l-14.082,13.182a.678.678,0,0,0-.027.964.664.664,0,0,0,.49.218.717.717,0,0,0,.473-.182l1.582-1.482a9.868,9.868,0,0,0,4.3.982c4.282,0,8.018-2.745,10-6.818A12.83,12.83,0,0,0,1064.591,180.159Zm-1.409,8.327a9.041,9.041,0,0,1-5.182,1.673,8.567,8.567,0,0,1-3.354-.682l1.872-1.763a3.411,3.411,0,0,0,1.482.336,3.448,3.448,0,0,0,3.218-4.727l2.509-2.355a11.539,11.539,0,0,1,2.946,3.555A11.374,11.374,0,0,1,1063.182,188.486Z"/>
      </g>
    </symbol>
    <symbol id="icon-nayax-logo-menu" viewBox="0 0 47 32">
      <path fill="#f3e111" style="fill: #f3e111;"
            d="M20.249 22.136c-0.137-0.41-0.547-0.547-0.957-0.547-0.273 0-0.547 0-0.684 0.273v0c-0.137 0.137-0.273 0.273-0.41 0.547-0.137 0.137-0.137 0.41-0.137 0.684 0 0.137 0 0.41 0 0.547v0.273h2.598v-0.41c0-0.273 0-0.41 0-0.684-0.273-0.273-0.273-0.41-0.41-0.684z"></path>
      <path fill="#f3e111" style="fill: #f3e111;"
            d="M14.232 21.042c0-0.41-0.137-0.82-0.41-1.094-0.41-0.273-0.82-0.41-1.231-0.41h-1.368v3.419h1.231c0.274 0 0.41 0 0.684 0s0.41-0.137 0.547-0.273c0.274-0.137 0.41-0.273 0.547-0.547 0-0.41 0-0.684 0-1.094z"></path>
      <path fill="#f3e111" style="fill: #f3e111;"
            d="M29.411 24.598c-0.273 0.137-0.41 0.137-0.684 0.273s-0.547 0.137-0.82 0.273c-0.137 0.137-0.273 0.273-0.41 0.41-0.137 0.273-0.137 0.41-0.137 0.684s0 0.684 0.273 0.957c0.137 0.273 0.547 0.41 0.82 0.273 0.41 0 0.684-0.137 0.957-0.41s0.41-0.547 0.41-0.957v-1.915c-0.137 0.137-0.273 0.273-0.41 0.41v0z"></path>
      <path fill="#f3e111" style="fill: #f3e111;"
            d="M6.71 16.529l-4.103 6.701 2.598 6.974h38.701v-13.675h-37.197zM14.505 28.153c-0.137-0.137-0.137-0.41-0.274-0.547 0-0.273-0.137-0.547-0.137-0.82l-0.137-1.504c0-0.273-0.137-0.547-0.137-0.82-0.137-0.137-0.137-0.273-0.274-0.41s-0.274-0.137-0.41-0.137c-0.137 0-0.274 0-0.547 0h-1.641v4.376h-1.231v-9.709h3.145c0.684 0 1.368 0.137 1.778 0.684 0.41 0.41 0.684 1.094 0.684 1.778 0 0.547-0.137 1.094-0.41 1.641-0.274 0.41-0.684 0.82-1.094 0.82v0c0.41 0 0.684 0.273 0.957 0.547s0.41 0.684 0.41 1.094l0.137 1.641c0 0.41 0 0.684 0.137 1.094 0 0.137 0.137 0.41 0.41 0.41h-1.368zM21.753 24.734h-3.829c0 0.41 0 0.684 0 0.957s0.137 0.547 0.137 0.82c0.137 0.273 0.273 0.547 0.41 0.684 0.273 0.137 0.547 0.273 0.82 0.273s0.41 0 0.684-0.137c0.137-0.137 0.273-0.273 0.41-0.41s0.137-0.41 0.137-0.547c0-0.137 0-0.41 0-0.547h1.094c0 0.273 0 0.547-0.137 0.82s-0.273 0.547-0.41 0.82c-0.137 0.273-0.41 0.547-0.82 0.684s-0.82 0.273-1.231 0.273c-0.82 0-1.504-0.273-1.915-0.957v0c-0.41-0.82-0.684-1.778-0.547-2.872 0-0.547 0-0.957 0.137-1.504 0-0.41 0.137-0.82 0.41-1.231 0.137-0.41 0.41-0.684 0.82-0.957 0.82-0.41 1.778-0.41 2.598 0 0.273 0.137 0.547 0.547 0.684 0.82s0.273 0.684 0.273 1.094c0 0.41 0.137 0.82 0.137 1.231v0.684zM25.719 21.863h-1.231v4.65c0 0.273 0 0.41 0.137 0.684 0.137 0.137 0.41 0.273 0.547 0.137 0.137 0 0.273 0 0.41 0 0 0 0 0 0.137 0v0.957c-0.273 0-0.547 0.137-0.957 0.137s-0.82-0.137-1.094-0.273v0c-0.273-0.273-0.41-0.684-0.273-1.094v-5.060h-1.094v-0.957h1.094v-2.051h1.094v2.051h1.231v0.82zM31.599 28.153v0c-0.137 0-0.273 0-0.273 0-0.273 0-0.41 0-0.684 0-0.137 0-0.273 0-0.273-0.137-0.137-0.137-0.137-0.137-0.273-0.273s-0.137-0.41-0.137-0.547v0c-0.137 0.273-0.41 0.547-0.82 0.82-0.273 0.137-0.684 0.273-0.957 0.273-0.547 0-1.094-0.137-1.504-0.547v0c-0.41-0.41-0.547-0.957-0.547-1.504 0-0.41 0.137-0.957 0.273-1.231 0.273-0.41 0.547-0.547 1.094-0.684l1.504-0.41c0.273 0 0.547-0.137 0.684-0.41s0.137-0.41 0.137-0.684c0-0.684-0.41-1.094-1.231-1.094-0.273 0-0.547 0-0.684 0.137s-0.273 0.273-0.41 0.41c0 0.137-0.137 0.273-0.137 0.41s0 0.273 0 0.41v0h-1.094c0-0.684 0.137-1.368 0.547-1.778 0.547-0.41 1.231-0.684 1.915-0.547 0.41 0 0.82 0 1.231 0.137 0.273 0.137 0.547 0.273 0.684 0.547 0.137 0.137 0.273 0.41 0.273 0.684s0 0.547 0 0.684v4.103c0 0.137 0 0.273 0 0.41s0.137 0.137 0.273 0.137c0.137 0 0.137 0 0.273 0v0.684zM32.557 28.153v-7.248h1.094v7.248h-1.094zM32.557 19.811v-1.368h1.094v1.368h-1.094zM36.522 28.153h-1.094v-9.709h1.094v9.709z"></path>
      <path fill="#fff" style="fill: #fff;"
            d="M28.864 14.068h-3.009l4.513-12.855h3.145l1.641 8.889-2.325 3.966-0.273-1.778h-3.145l-0.547 1.778zM31.599 5.999l-1.094 3.282h1.504l-0.41-3.282zM13.138 14.068h-3.009l4.513-12.855h3.145l2.325 12.855h-3.009l-0.273-1.778h-3.145l-0.547 1.778zM15.873 5.999l-1.094 3.282h1.504l-0.41-3.282zM40.898 14.068l-1.504-3.692-2.051 3.692h-3.282l3.692-6.427-2.598-6.427h3.282l1.504 3.692 2.051-3.692h3.282l-3.692 6.427 2.598 6.427h-3.282zM21.616 14.068l0.41-5.47-2.872-7.385h3.282l1.368 3.966 2.188-3.966h3.282l-4.239 7.385-0.41 5.47h-3.009zM7.668 14.068l-2.188-5.744-0.547 5.744h-2.872l1.094-12.855h2.735l2.188 5.744 0.547-5.744h2.872l-0.684 7.795-1.778 5.060h-1.368z"></path>
    </symbol>
    <symbol id="icon-section" viewBox="0 0 30 30">
      <path d="M6,18.2c0,0-0.1,0-0.1,0c-0.6,0-1.3-0.3-1.7-0.8c-0.5-0.5-0.7-1.1-0.7-1.8c0-0.6,0.3-1.2,0.7-1.7
	c0.4-0.5,1.1-0.8,1.8-0.8c0.7,0,1.4,0.3,1.8,0.8c0.4,0.4,0.7,1.1,0.6,1.7c0,0.6-0.3,1.2-0.7,1.7c0,0,0,0,0,0
	C7.3,17.9,6.6,18.2,6,18.2z M6,14.5C6,14.5,6,14.5,6,14.5c-0.4,0-0.7,0.1-0.9,0.4c-0.2,0.2-0.3,0.5-0.3,0.8c0,0.3,0.1,0.6,0.3,0.8
	c0.2,0.2,0.5,0.4,0.8,0.4c0.3,0,0.6-0.1,0.8-0.3C7,16.3,7.1,16,7.1,15.7c0-0.3-0.1-0.6-0.3-0.8C6.6,14.7,6.3,14.5,6,14.5z"/>
      <path d="M15.3,18.2c0,0-0.1,0-0.1,0c-0.6,0-1.3-0.3-1.7-0.8c-0.5-0.5-0.7-1.1-0.7-1.8c0-0.6,0.3-1.2,0.7-1.7
	c0.4-0.5,1.1-0.8,1.8-0.8c0.7,0,1.4,0.3,1.8,0.8c0.4,0.4,0.7,1.1,0.6,1.7c0,0.6-0.3,1.2-0.7,1.7c0,0,0,0,0,0
	C16.5,17.9,15.9,18.2,15.3,18.2z M15.3,14.5C15.3,14.5,15.2,14.5,15.3,14.5c-0.4,0-0.7,0.1-0.9,0.4c-0.2,0.2-0.3,0.5-0.3,0.8
	c0,0.3,0.1,0.6,0.3,0.8c0.2,0.2,0.5,0.4,0.8,0.4c0.3,0,0.6-0.1,0.8-0.3c0.2-0.2,0.3-0.5,0.3-0.9c0-0.3-0.1-0.6-0.3-0.8
	C15.8,14.7,15.5,14.5,15.3,14.5z"/>
      <path d="M24.5,18.2C24.5,18.2,24.4,18.2,24.5,18.2c-0.7,0-1.4-0.3-1.8-0.8C22.2,17,22,16.3,22,15.7
	c0-0.6,0.3-1.2,0.7-1.7c0.4-0.5,1.1-0.8,1.8-0.8c0.7,0,1.4,0.3,1.8,0.8c0.4,0.4,0.7,1.1,0.6,1.7c0,0.6-0.3,1.2-0.7,1.7c0,0,0,0,0,0
	C25.7,17.9,25.1,18.2,24.5,18.2z M24.5,14.5C24.5,14.5,24.5,14.5,24.5,14.5c-0.4,0-0.7,0.1-0.9,0.4c-0.2,0.2-0.3,0.5-0.3,0.8
	c0,0.3,0.1,0.6,0.3,0.8c0.2,0.2,0.5,0.4,0.8,0.4c0.3,0,0.6-0.1,0.8-0.3c0.2-0.2,0.3-0.5,0.3-0.9c0-0.3-0.1-0.6-0.3-0.8
	C25,14.7,24.8,14.5,24.5,14.5z"/>
    </symbol>
    <symbol id="icon-settings" viewBox="0 0 30 30">
      <path d="M24,12.8L24,12.8l-1.5,0c-0.2-0.5-0.4-1-0.6-1.5l1.1-1.1c0.4-0.4,0.4-1,0-1.4v0l-1.7-1.7c0,0-0.1-0.1-0.2-0.1
		c-0.1-0.1-0.2-0.1-0.3-0.1c-0.1,0-0.2-0.1-0.3,0c0,0,0,0-0.1,0h0c0,0,0,0,0,0c-0.1,0-0.2,0-0.3,0.1c0,0-0.1,0-0.1,0.1
		c-0.1,0-0.1,0.1-0.2,0.1l-1.1,1.1L18.3,8c-0.2-0.1-0.5-0.2-0.7-0.3c-0.1,0-0.2-0.1-0.4-0.1V6c0-0.6-0.4-1-1-1h0h-2.4h0
		c-0.3,0-0.5,0.1-0.7,0.3c0,0-0.1,0.1-0.1,0.2c0,0,0,0,0,0.1c-0.1,0.2-0.2,0.3-0.2,0.5v1.5h0c-0.1,0-0.2,0.1-0.4,0.1
		c-0.2,0.1-0.4,0.2-0.6,0.3c-0.2,0.1-0.3,0.1-0.5,0.2l-1.1-1.1v0C10.1,7,10,6.9,9.9,6.9c0,0,0,0,0,0c0,0,0,0,0,0
		c-0.1,0-0.3-0.1-0.4-0.1c0,0,0,0,0,0c0,0,0,0,0,0C9.2,6.8,9,6.9,8.8,7.1L7.1,8.8c-0.4,0.4-0.4,1,0,1.4l1.1,1.1
		c-0.3,0.5-0.5,1-0.6,1.5H6c0,0,0,0,0,0h0c-0.6,0-1,0.4-1,1v2.4c0,0.6,0.4,1,1,1h1.5c0.1,0.3,0.2,0.5,0.3,0.8
		c0.1,0.2,0.2,0.5,0.3,0.7l-1.1,1.1c-0.4,0.4-0.4,1,0,1.4l1.7,1.7c0.2,0.2,0.4,0.3,0.7,0.3c0,0,0,0,0,0s0,0,0,0
		c0.3,0,0.5-0.1,0.7-0.3l1.1-1.1c0.5,0.3,1,0.5,1.5,0.6V24c0,0.6,0.4,1,1,1h2.4c0,0,0,0,0,0h0c0.6,0,1-0.4,1-1v-1.5
		c0.5-0.2,1-0.4,1.5-0.6l1.1,1.1c0.2,0.2,0.4,0.3,0.7,0.3c0,0,0,0,0,0s0,0,0,0c0.3,0,0.5-0.1,0.7-0.3l1.7-1.7c0.4-0.4,0.4-1,0-1.4
		l-1.1-1.1c0.1-0.2,0.2-0.3,0.2-0.5c0.1-0.2,0.2-0.3,0.2-0.5c0.1-0.2,0.1-0.3,0.2-0.5H24h0c0.6,0,1-0.4,1-1v-2.4
		C25,13.2,24.6,12.8,24,12.8z M21.7,16.2l-0.2,0.7c-0.1,0.4-0.3,0.9-0.5,1.3l-0.3,0.7l0.5,0.5l1.1,1.1l-1.7,1.7l-1.1-1.1l-0.5-0.5
		L18.2,21c-0.4,0.2-0.8,0.4-1.3,0.5l-0.7,0.2V24h-2.4v-2.3l-0.7-0.2c-0.4-0.1-0.9-0.3-1.3-0.5l-0.7-0.4l-1.6,1.6l-1.7-1.7l1.1-1.1
		l0.5-0.5L9,18.2c-0.2-0.4-0.4-0.8-0.5-1.3l-0.2-0.7H6v-2.4h2.3l0.2-0.7c0.1-0.4,0.3-0.9,0.5-1.3l0.4-0.7L7.8,9.5l1.7-1.7l1.1,1.1
		l0.5,0.5L11.8,9c0.4-0.2,0.8-0.4,1.3-0.5l0.7-0.2V6h2.4v2.3l0.7,0.2c0.4,0.1,0.9,0.3,1.3,0.5l0.7,0.3l0.5-0.5l1.1-1.1l1.7,1.7
		l-1.1,1.1l-0.5,0.5l0.3,0.7c0.2,0.4,0.4,0.8,0.5,1.3l0.2,0.7H24l0,2.4H21.7z"/>
      <path d="M16.5,11.3c-1-0.4-2.1-0.4-3.1,0c-0.5,0.2-0.9,0.5-1.3,0.9c-1.5,1.6-1.4,4.2,0.3,5.7c1.5,1.4,3.8,1.4,5.4,0
		c0.4-0.4,0.7-0.8,0.9-1.3c0.4-1,0.4-2.1,0-3.1C18.3,12.5,17.5,11.7,16.5,11.3z M15,17.7c-1.5,0-2.7-1.2-2.7-2.7
		c0-1.5,1.2-2.7,2.7-2.7c1.5,0,2.7,1.2,2.7,2.7C17.7,16.5,16.5,17.7,15,17.7z"/>
    </symbol>
    <symbol id="icon-sub-link" viewBox="0 0 30 30">
      <path d="M15.1,18.2c0,0-0.1,0-0.1,0c-1.7,0-3.2-1.5-3.1-3.3c0-0.8,0.3-1.6,0.9-2.1c0.6-0.6,1.4-1,2.3-1
	c0.9,0,1.7,0.3,2.3,1c0.6,0.6,0.9,1.4,0.8,2.2c0,0.8-0.3,1.6-0.9,2.2c0,0,0,0,0,0C16.7,17.9,15.9,18.2,15.1,18.2z M15.1,13.1
	C15.1,13.1,15.1,13.1,15.1,13.1c-0.6,0-1.1,0.2-1.4,0.6c-0.3,0.4-0.5,0.8-0.5,1.3c0,1,0.8,1.9,1.9,1.9c0.5,0,1-0.2,1.3-0.5
	c0.3-0.4,0.5-0.9,0.5-1.4c0-0.5-0.2-1-0.5-1.3C16,13.3,15.6,13.1,15.1,13.1z"/>
    </symbol>
    <symbol id="icon-copy-to-clipboard" viewBox="0 0 448 512">
      <path fill="currentColor"
            d="M433.941 65.941l-51.882-51.882A48 48 0 0 0 348.118 0H176c-26.51 0-48 21.49-48 48v48H48c-26.51 0-48 21.49-48 48v320c0 26.51 21.49 48 48 48h224c26.51 0 48-21.49 48-48v-48h80c26.51 0 48-21.49 48-48V99.882a48 48 0 0 0-14.059-33.941zM266 464H54a6 6 0 0 1-6-6V150a6 6 0 0 1 6-6h74v224c0 26.51 21.49 48 48 48h96v42a6 6 0 0 1-6 6zm128-96H182a6 6 0 0 1-6-6V54a6 6 0 0 1 6-6h106v88c0 13.255 10.745 24 24 24h88v202a6 6 0 0 1-6 6zm6-256h-64V48h9.632c1.591 0 3.117.632 4.243 1.757l48.368 48.368a6 6 0 0 1 1.757 4.243V112z"></path>
    </symbol>
    <symbol id="icon-external-link" viewBox="0 0 512 512">
      <path fill="currentColor"
            d="M432,320H400a16,16,0,0,0-16,16V448H64V128H208a16,16,0,0,0,16-16V80a16,16,0,0,0-16-16H48A48,48,0,0,0,0,112V464a48,48,0,0,0,48,48H400a48,48,0,0,0,48-48V336A16,16,0,0,0,432,320ZM488,0h-128c-21.37,0-32.05,25.91-17,41l35.73,35.73L135,320.37a24,24,0,0,0,0,34L157.67,377a24,24,0,0,0,34,0L435.28,133.32,471,169c15,15,41,4.5,41-17V24A24,24,0,0,0,488,0Z"></path>
    </symbol>
    <symbol id="icon-english" viewBox="0 0 512 512">
      <circle style="fill:#F0F0F0;" cx="256" cy="256" r="256"/>
      <path style="fill:#0052B4;" d="M52.92,100.142c-20.109,26.163-35.272,56.318-44.101,89.077h133.178L52.92,100.142z"/>
      <path style="fill:#0052B4;"
            d="M503.181,189.219c-8.829-32.758-23.993-62.913-44.101-89.076l-89.075,89.076H503.181z"/>
      <path style="fill:#0052B4;" d="M8.819,322.784c8.83,32.758,23.993,62.913,44.101,89.075l89.074-89.075L8.819,322.784L8.819,322.784
		z"/>
      <path style="fill:#0052B4;"
            d="M411.858,52.921c-26.163-20.109-56.317-35.272-89.076-44.102v133.177L411.858,52.921z"/>
      <path style="fill:#0052B4;"
            d="M100.142,459.079c26.163,20.109,56.318,35.272,89.076,44.102V370.005L100.142,459.079z"/>
      <path style="fill:#0052B4;" d="M189.217,8.819c-32.758,8.83-62.913,23.993-89.075,44.101l89.075,89.075V8.819z"/>
      <path style="fill:#0052B4;" d="M322.783,503.181c32.758-8.83,62.913-23.993,89.075-44.101l-89.075-89.075V503.181z"/>
      <path style="fill:#0052B4;"
            d="M370.005,322.784l89.075,89.076c20.108-26.162,35.272-56.318,44.101-89.076H370.005z"/>
      <path style="fill:#D80027;" d="M509.833,222.609h-220.44h-0.001V2.167C278.461,0.744,267.317,0,256,0
		c-11.319,0-22.461,0.744-33.391,2.167v220.44v0.001H2.167C0.744,233.539,0,244.683,0,256c0,11.319,0.744,22.461,2.167,33.391
		h220.44h0.001v220.442C233.539,511.256,244.681,512,256,512c11.317,0,22.461-0.743,33.391-2.167v-220.44v-0.001h220.442
		C511.256,278.461,512,267.319,512,256C512,244.683,511.256,233.539,509.833,222.609z"/>
      <path style="fill:#D80027;" d="M322.783,322.784L322.783,322.784L437.019,437.02c5.254-5.252,10.266-10.743,15.048-16.435
		l-97.802-97.802h-31.482V322.784z"/>
      <path style="fill:#D80027;" d="M189.217,322.784h-0.002L74.98,437.019c5.252,5.254,10.743,10.266,16.435,15.048l97.802-97.804
		V322.784z"/>
      <path style="fill:#D80027;" d="M189.217,189.219v-0.002L74.981,74.98c-5.254,5.252-10.266,10.743-15.048,16.435l97.803,97.803
		H189.217z"/>
      <path style="fill:#D80027;" d="M322.783,189.219L322.783,189.219L437.02,74.981c-5.252-5.254-10.743-10.266-16.435-15.047
		l-97.802,97.803V189.219z"/>
    </symbol>
    <symbol id="icon-russian" viewBox="0 8 30 10">
      <g transform="matrix(3.3333335 0 0 3.3333335 -0 5)">
        <path d="M0 0L9 0L9 3L0 3z" stroke="none" fill="#FFFFFF" fill-rule="nonzero" />
        <path d="M0 3L9 3L9 6L0 6z" stroke="none" fill="#D52B1E" fill-rule="nonzero" />
        <path d="M0 2L9 2L9 4L0 4z" stroke="none" fill="#0039A6" fill-rule="nonzero" />
      </g>
    </symbol>
    <symbol id="icon-ukrainian" viewBox="0 0 512 512">
      <mask id="a"><circle cx="256" cy="256" r="256" fill="#fff"/></mask><g mask="url(#a)"><path fill="#ffda44" d="m0 256 258-39.4L512 256v256H0z"/><path fill="#338af3" d="M0 0h512v256H0z"/></g>
    </symbol>
    <symbol id="icon-logo" viewBox="0 0 30 30">
      <g transform="translate(-181.188 -144.354)">
        <path fill="#fccd09"
              d="M48.34,91.141h7.573V87.679c0-.028-.01-.04-.028-.046a.565.565,0,0,0-.2.053A35.373,35.373,0,0,0,49.941,90.2c-.53.284-1.049.6-1.561.893-.033.024-.025,0-.04.047Z"
              transform="translate(148.452 78.357)"/>
        <path
          d="M.12.24V18.527l3.872,0c.1-.012.081-.041.077-.16-.02-1.16,0-2.487,0-11.433a.5.5,0,0,1,.109.128c.041.053.069.089.112.142.077.092.145.179.217.273,1.6,2.041,1.659,2.113,6.069,7.746a6.5,6.5,0,0,0,.449.553.881.881,0,0,0,.161-.072l1.141-.53c.12-.048.216-.1.326-.145.774-.337,1.582-.678,2.372-.966l1.077-.357c.069-.02.12-.033.184-.053s.125-.041.2-.059V.633c0-.277.044-.369-.059-.393H12.535V11.632C6.132,3.339,4.257.913,3.893.438a.7.7,0,0,1-.14-.2H.12Z"
          transform="translate(187.881 150.969)"/>
      </g>
    </symbol>
    <symbol id="icon-logo-full" viewBox="0 0 325.359 89.261">
      <g transform="translate(0.015 -0.185)">
        <path
          d="M48.33,104H83.512V87.921c0-.131-.048-.186-.131-.213a2.625,2.625,0,0,0-.907.247A164.314,164.314,0,0,0,55.766,99.632c-2.46,1.32-4.873,2.777-7.251,4.151-.151.11-.117.021-.186.22Z"
          transform="translate(-15.08 -27.877)" fill="#fccd09" stroke="#fccd09" stroke-miterlimit="10"
          stroke-width="0.25" fill-rule="evenodd"/>
        <path
          d="M200.558,47.1a33.782,33.782,0,0,0,2.4,13.5,28,28,0,0,0,2.493,4.761,28.77,28.77,0,0,0,5.1,5.758l1,.786a27.3,27.3,0,0,0,8.327,4.31c.936.287,1.851.533,2.9.765a33.464,33.464,0,0,0,8.778.779,23.815,23.815,0,0,0,15.3-6.141A12.615,12.615,0,0,1,248,70.5c0,.779.881,5.048.9,5.711h12.473V17.831H248.906c-.1,1.134-1.12,6.141-1.148,6.858L246.222,23.3a21.7,21.7,0,0,0-3.484-2.4c-.348-.184-.567-.321-.949-.512-5.683-2.848-12.152-3.1-18.423-1.851a30.67,30.67,0,0,0-6.865,2.268,29.25,29.25,0,0,0-5.629,3.579l-1.434,1.25a31.233,31.233,0,0,0-3.784,4.529,29.886,29.886,0,0,0-2.568,4.775A32.094,32.094,0,0,0,200.558,47.1Zm29-14.884h1.933A14.713,14.713,0,0,1,246.16,46.9v1.919a14.722,14.722,0,0,1-14.672,14.686h-1.933a14.734,14.734,0,0,1-14.686-14.686V46.9a14.734,14.734,0,0,1,14.686-14.686Zm57.9,14.72a3.274,3.274,0,0,1-.512.949c-.2.321-.369.6-.567.915l-5.731,9.092c-.779,1.264-1.516,2.432-2.3,3.648l-8.012,12.773a14.679,14.679,0,0,0-1.134,1.885h17.856l7.015-11.892c.4-.663.779-1.311,1.182-2l1.168-2c.335.232,6.257,9.14,6.749,9.891l2.281,3.347c.4.533.731,1.086,1.113,1.653.765,1.161.451,1.011,1.762,1.011h16.79c-.068-.253-.116-.219-.28-.451l-5.861-8.661c-.417-.628-.785-1.236-1.236-1.851l-2.466-3.634c-.833-1.25-1.646-2.432-2.466-3.661-.4-.6-.82-1.182-1.23-1.783L305.724,47.5a2.193,2.193,0,0,0-.164-.246l-.184-.232,4.945-7.282c.833-1.25,1.633-2.4,2.466-3.648,2.6-3.914,5.41-7.89,8.006-11.81l4.317-6.441H307.172c-.082.321-6,9.3-6.639,10.239l-4.044,6.23c-.362-.246-5.574-7.459-6.175-8.258L286.6,20.98c-.417-.581-.82-1.052-1.229-1.633l-.929-1.277c-.164-.212-.164-.219-.5-.232-1.844-.1-4,0-5.874,0h-11.66c.266.512,3.415,4.775,3.88,5.417l3.976,5.492c.232.3.43.581.635.9,1.346,1.967,3.21,4.344,4.631,6.373,2.3,3.265,4.877,6.708,7.227,9.98ZM163.378,71.152c0,.232-1.667,4.01-1.9,4.542l-5.307,12.459a5.141,5.141,0,0,0-.451,1.168H171.37l8.859-20.069c.171-.4.362-.765.512-1.134s.321-.779.5-1.12c.348-.717.628-1.5.97-2.2l6.94-15.656c.895-1.995,2.049-4.775,2.951-6.66l9.406-21.237c.171-.4.362-.779.512-1.134s.321-.779.5-1.12A9.14,9.14,0,0,0,203,17.845H186.132c-.034.4-3.545,8.443-3.661,8.73l-1.865,4.344c-1.079,2.732-2.534,5.881-3.7,8.689-.587,1.414-1.236,2.91-1.865,4.331l-.929,2.179c-.3.717-2.63,6.032-2.746,6.544h-.164c-.034-.383-3.292-7.657-3.716-8.675-1.769-4.249-3.812-8.764-5.629-13.026l-5.191-11.94a7.293,7.293,0,0,1-.464-1.168h-17.2c.02.266,1.277,2.965,1.462,3.347L145.8,32.824c.266.553.567,1.134.779,1.667l.779,1.68c1,2.049,2.049,4.611,3.047,6.66l.779,1.667c.2.512.485,1.079.745,1.612l3.047,6.66c.164.321.232.519.383.847L158.8,61.1c.635,1.537,1.96,4.262,2.7,5.861ZM.11.31V76.2l16.066.014c.43-.048.335-.171.321-.663-.082-4.816,0-10.321,0-15.157V28.1a2.066,2.066,0,0,1,.451.533c.171.219.287.369.464.587.321.383.6.745.9,1.134l6.3,8.047c.314.417.581.717.895,1.148L43.492,62.5a26.955,26.955,0,0,0,1.865,2.3,3.655,3.655,0,0,0,.669-.3l4.734-2.2c.5-.2.895-.4,1.352-.6,3.21-1.4,6.564-2.814,9.843-4.01L66.423,56.2c.287-.082.5-.137.765-.219.287-.082.519-.171.813-.246V1.943c0-1.148.184-1.53-.246-1.633H51.621V47.586l-26.175-33.9c-.4-.519-.765-.984-1.182-1.5L20.869,7.756c-1.516-1.851-3.6-4.652-5.1-6.633A2.891,2.891,0,0,1,15.185.31ZM74.2,47.1a33.783,33.783,0,0,0,2.4,13.5,30.1,30.1,0,0,0,2.493,4.761,28.77,28.77,0,0,0,5.1,5.758l1,.786a27.452,27.452,0,0,0,8.327,4.31c.936.287,1.851.533,2.91.765a33.361,33.361,0,0,0,8.764.779,23.786,23.786,0,0,0,15.3-6.141,13.576,13.576,0,0,1,1.168-1.12c0,.779.881,5.048.895,5.711h12.473V17.831H122.551c-.1,1.134-1.12,6.141-1.148,6.858L119.867,23.3a21.7,21.7,0,0,0-3.484-2.4c-.348-.184-.567-.321-.949-.512-5.683-2.848-12.152-3.1-18.423-1.851a30.61,30.61,0,0,0-6.858,2.268,29.564,29.564,0,0,0-5.642,3.579l-1.434,1.25a31.674,31.674,0,0,0-3.784,4.529,29.887,29.887,0,0,0-2.568,4.775A32.36,32.36,0,0,0,74.2,47.1Zm29-14.884h1.933A14.713,14.713,0,0,1,119.812,46.9v1.919A14.722,14.722,0,0,1,105.14,63.508h-1.933A14.722,14.722,0,0,1,88.534,48.822V46.9a14.718,14.718,0,0,1,14.672-14.686Z"
          transform="translate(0 0)" stroke="#e6e6e6" stroke-miterlimit="10" stroke-width="0.25"
          fill-rule="evenodd"/>
      </g>
    </symbol>
    <symbol id="icon-link-down" viewBox="0 0 30 30">
      <path
        d="M1140.47 95.28v11.46a2.5 2.5 0 0 1-2.45 2.47h-4.11V108h4.09a1.32 1.32 0 0 0 1.26-1.28V95.79l-5.6-5.25h-6.85a1.3 1.3 0 0 0-1.27 1.28v8.05h-1.22V91.8a2.52 2.52 0 0 1 2.46-2.47h7.74z"
        class="cls-1" transform="translate(-1122.82 -86.03)"/>
      <g transform="translate(-1122.82 -86.03)">
        <path
          d="M1126.14 106.35a1.351 1.351 0 1 0 2.22 1.54l1.12-1.6v-.1l.08-.01a.616.616 0 0 1 .38-.2.629.629 0 0 1 .49.12.648.648 0 0 1 .26.42.682.682 0 0 1-.12.48l-1.15 1.64a2.623 2.623 0 0 1-2.17 1.13 2.634 2.634 0 0 1-1.52-.48 2.578 2.578 0 0 1-1.09-1.7 2.616 2.616 0 0 1 .44-1.99l2.3-3.29a2.653 2.653 0 0 1 3.69-.64.659.659 0 0 1 .16.89.674.674 0 0 1-.9.17 1.321 1.321 0 0 0-1.02-.22 1.338 1.338 0 0 0-.87.56z"
          class="cls-1"/>
      </g>
      <g transform="translate(-1122.82 -86.03)">
        <path
          d="M1135.08 100.42l-2.54 3.62a2.589 2.589 0 0 1-1.7 1.08 2.383 2.383 0 0 1-.46.04 2.611 2.611 0 0 1-1.52-.48.649.649 0 1 1 .75-1.06 1.358 1.358 0 0 0 1.88-.33l2.52-3.61a1.36 1.36 0 0 0-.33-1.88 1.345 1.345 0 0 0-1.01-.23 1.327 1.327 0 0 0-.87.56l-1.38 1.97a.651.651 0 0 1-1.07-.74l1.38-1.98a2.671 2.671 0 0 1 3.66-.68l.04.03c0 .01.01.01.02.02l.04.03a2.655 2.655 0 0 1 .59 3.64z"
          class="cls-1"/>
      </g>
      <path d="M1148.466 109.031l-5.143-5.143.857-.857 4.286 4.285 4.29-4.285.857.857z" class="cls-1"
            transform="translate(-1123.82 -86.03)"/>
      <path fill="none" d="M0 0H30V30H0z"/>
    </symbol>
    <symbol id="icon-link-up" viewBox="0 0 30 30">
      <path
        d="M1140.47 95.28v11.46a2.5 2.5 0 0 1-2.45 2.47h-4.11V108h4.09a1.32 1.32 0 0 0 1.26-1.28V95.79l-5.6-5.25h-6.85a1.3 1.3 0 0 0-1.27 1.28v8.05h-1.22V91.8a2.52 2.52 0 0 1 2.46-2.47h7.74z"
        class="cls-1" transform="translate(-1122.82 -86.03)"/>
      <g transform="translate(-1122.82 -86.03)">
        <path
          d="M1126.14 106.35a1.351 1.351 0 1 0 2.22 1.54l1.12-1.6v-.1l.08-.01a.616.616 0 0 1 .38-.2.629.629 0 0 1 .49.12.648.648 0 0 1 .26.42.682.682 0 0 1-.12.48l-1.15 1.64a2.623 2.623 0 0 1-2.17 1.13 2.634 2.634 0 0 1-1.52-.48 2.578 2.578 0 0 1-1.09-1.7 2.616 2.616 0 0 1 .44-1.99l2.3-3.29a2.653 2.653 0 0 1 3.69-.64.659.659 0 0 1 .16.89.674.674 0 0 1-.9.17 1.321 1.321 0 0 0-1.02-.22 1.338 1.338 0 0 0-.87.56z"
          class="cls-1"/>
      </g>
      <g transform="translate(-1122.82 -86.03)">
        <path
          d="M1135.08 100.42l-2.54 3.62a2.589 2.589 0 0 1-1.7 1.08 2.383 2.383 0 0 1-.46.04 2.611 2.611 0 0 1-1.52-.48.649.649 0 1 1 .75-1.06 1.358 1.358 0 0 0 1.88-.33l2.52-3.61a1.36 1.36 0 0 0-.33-1.88 1.345 1.345 0 0 0-1.01-.23 1.327 1.327 0 0 0-.87.56l-1.38 1.97a.651.651 0 0 1-1.07-.74l1.38-1.98a2.671 2.671 0 0 1 3.66-.68l.04.03c0 .01.01.01.02.02l.04.03a2.655 2.655 0 0 1 .59 3.64z"
          class="cls-1"/>
      </g>
      <path d="M1148.466 103.031l-5.143 5.143.857.857 4.286-4.285 4.29 4.285.857-.857z" class="cls-1"
            transform="translate(-1123.82 -86.03)"/>
      <path fill="none" d="M0 0h30v30H0z"/>
    </symbol>
    <symbol id="icon-warning" viewBox="0 0 30 30">
      <path d="M11.155 1.339a1 1 0 0 1 1.691 0l10.185 16.127A1 1 0 0 1 22.186 19H1.814a1 1 0 0 1-.845-1.534z"
            transform="translate(3 4)" style="fill:#f3e111"/>
      <path
        d="M-16751.7 7370.5a.3.3 0 0 1-.3-.3v-1.4a.3.3 0 0 1 .3-.3h1.395a.3.3 0 0 1 .3.3v1.4a.3.3 0 0 1-.3.3zm0-3.5a.3.3 0 0 1-.3-.3v-4.4a.3.3 0 0 1 .3-.3h1.395a.3.3 0 0 1 .3.3v4.4a.3.3 0 0 1-.3.3z"
        transform="translate(16766 -7350.5)" style="fill:#2b2b2b"/>
      <path style="fill:none" d="M0 0h30v30H0z"/>
    </symbol>
    <symbol id="icon-search" viewBox="0 0 30 30">
      <path
        d="M813.34 438.19a6.838 6.838 0 1 0-1.21 1.18l5.27 5.15 1.19-1.21zm-5.35.87a5.15 5.15 0 1 1 5.15-5.15 5.155 5.155 0 0 1-5.15 5.15z"
        transform="translate(-794.441 -420.46)"/>
    </symbol>
    <symbol id="icon-bookmark-stack" viewBox="0 0 30 30">
      <path d="m24.30933,6.0108l-15,0a2.648,2.648 0 0 0 -2.65,2.65l0,0.35l-0.35,0a2.648,2.648 0 0 0 -2.65,2.65l0,10a2.648,2.648 0 0 0 2.65,2.65l15,0a2.655,2.655 0 0 0 2.65,-2.65l0,-0.35l0.35,0a2.655,2.655 0 0 0 2.65,-2.65l0,-10a2.655,2.655 0 0 0 -2.65,-2.65zm-1.65,15.65a1.357,1.357 0 0 1 -1.35,1.35l-15,0a1.351,1.351 0 0 1 -1.35,-1.35l0,-10a1.344,1.344 0 0 1 1.35,-1.35l0.35,0l0,8.35a2.648,2.648 0 0 0 2.65,2.65l13.35,0l0,0.35zm3,-3a1.357,1.357 0 0 1 -1.35,1.35l-15,0a1.351,1.351 0 0 1 -1.35,-1.35l0,-10a1.344,1.344 0 0 1 1.35,-1.35l15,0a1.351,1.351 0 0 1 1.35,1.35l0,10z"/>
    </symbol>
    <symbol id="icon-hamburger" viewBox="0 0 30 30">
      <g transform="translate(-524.84 -253.002)">
        <rect width="18.002" height="1.5" transform="translate(530.838 262.75)"/>
        <rect width="18.002" height="1.5" transform="translate(530.838 268.25)"/>
        <rect width="18.002" height="1.5" transform="translate(530.838 273.75)"/>
      </g>
    </symbol>
    <symbol id="icon-full-screen" viewBox="0 0 30 30">
      <path d="M 3.601562 3.601562 L 3.601562 10.800781 C 3.597656 11.015625 3.710938 11.21875 3.898438 11.328125 C 4.085938 11.4375 4.316406 11.4375 4.503906 11.328125 C 4.6875 11.21875 4.804688 11.015625 4.800781 10.800781 L 4.800781 4.800781 L 10.800781 4.800781 C 11.015625 4.804688 11.21875 4.6875 11.328125 4.503906 C 11.4375 4.316406 11.4375 4.085938 11.328125 3.898438 C 11.21875 3.710938 11.015625 3.597656 10.800781 3.601562 Z M 19.199219 3.601562 C 18.875 3.597656 18.609375 3.855469 18.597656 4.179688 C 18.585938 4.503906 18.835938 4.777344 19.15625 4.800781 C 19.171875 4.800781 19.1875 4.800781 19.199219 4.800781 L 25.199219 4.800781 L 25.199219 10.800781 C 25.195312 11.113281 25.4375 11.378906 25.75 11.40625 C 25.769531 11.40625 25.789062 11.410156 25.808594 11.410156 C 26.140625 11.402344 26.40625 11.132812 26.398438 10.800781 L 26.398438 3.601562 Z M 4.191406 19.191406 C 3.859375 19.195312 3.59375 19.46875 3.601562 19.800781 L 3.601562 27 L 10.800781 27 C 10.820312 27 10.839844 27 10.859375 26.996094 C 11.179688 26.96875 11.421875 26.691406 11.40625 26.371094 C 11.390625 26.046875 11.121094 25.796875 10.800781 25.800781 L 4.800781 25.800781 L 4.800781 19.800781 C 4.800781 19.636719 4.738281 19.480469 4.625 19.367188 C 4.507812 19.253906 4.351562 19.1875 4.191406 19.191406 Z M 25.789062 19.191406 C 25.460938 19.195312 25.195312 19.46875 25.199219 19.800781 L 25.199219 25.800781 L 19.199219 25.800781 C 18.984375 25.796875 18.78125 25.910156 18.671875 26.097656 C 18.5625 26.285156 18.5625 26.515625 18.671875 26.703125 C 18.78125 26.890625 18.984375 27.003906 19.199219 27 L 26.398438 27 L 26.398438 19.800781 C 26.402344 19.636719 26.339844 19.480469 26.222656 19.367188 C 26.109375 19.253906 25.953125 19.1875 25.789062 19.191406 Z M 25.789062 19.191406 "/>
    </symbol>
    <symbol id="icon-calendar" viewBox="0 0 30 30">
      <g transform="translate(-766.49 -420.99)">
        <path transform="translate(776.49 434.69)" d="M0 0h2v2H0z"/>
        <path d="M788.49 427.19h-1v-1a1 1 0 0 0-2 0v1h-8v-1a1 1 0 0 0-2 0v1h-1a2 2 0 0 0-2 2v14a1.993 1.993 0 0 0 2 2h14a2 2 0 0 0 2-2v-14a2.006 2.006 0 0 0-2-2zm.5 15.5a1 1 0 0 1-1 1h-13a.99.99 0 0 1-1-1v-10.5h15z"/>
        <path transform="translate(780.49 434.69)" d="M0 0h2v2H0z"/>
        <path transform="translate(784.49 434.69)" d="M0 0h2v2H0z"/>
      </g>
    </symbol>
    <symbol id="icon-time-picker" viewBox="0 0 30 30">
      <g transform="translate(-385.65 -27.03)">
        <path d="M400.65,33.03a8.954,8.954,0,0,0-6.36,2.64,8.781,8.781,0,0,0-.85.98c-.09.12-.17.23-.25.35-.16.24-.31.49-.45.74a8.987,8.987,0,0,0,0,8.58c.14.25.29.5.45.74.08.12.16.23.25.35a8.781,8.781,0,0,0,.85.98,9,9,0,1,0,6.36-15.36Zm0,16.5a7.5,7.5,0,1,1,7.5-7.5A7.5,7.5,0,0,1,400.65,49.53Z"/>
        <path d="M403.65,41.28H401.4V37.03a.75.75,0,1,0-1.5,0v5a.743.743,0,0,0,.75.75h3a.75.75,0,0,0,0-1.5Z"/>
      </g>
    </symbol>
    <symbol id="icon-date-time-picker" viewBox="0 0 30 30">
      <g transform="translate(-382.18 -96.15)">
        <rect width="2" height="2" transform="translate(392.179 109.645)"/>
        <path d="M406.18,110.41v-6.26a2,2,0,0,0-2-2h-1v-1a1,1,0,0,0-2,0v1h-8v-1a1,1,0,0,0-2,0v1h-1a1.993,1.993,0,0,0-2,2v14a2,2,0,0,0,1.99,2h6.24a6.455,6.455,0,0,0,3.09,2.46,7.292,7.292,0,0,0,2.68.54,7,7,0,0,0,4-12.74Zm-10.54,8.24h-4.96a.992.992,0,0,1-1-.98V107.15h15v2.47a6.7,6.7,0,0,0-2.5-.47,7,7,0,0,0-7,7A6.9,6.9,0,0,0,395.64,118.65Zm6.54,3a6.155,6.155,0,0,1-2.16-.44l-.01-.01a4.924,4.924,0,0,1-2.34-1.86,5.6,5.6,0,0,1-.99-3.19,5.5,5.5,0,1,1,5.5,5.5Z"/>
        <path d="M405.18,115.4h-2.25v-2.25a.75.75,0,0,0-1.5,0v3a.755.755,0,0,0,.75.75h3a.75.75,0,1,0,0-1.5Z"/>
      </g>
    </symbol>
    <symbol id="icon-translate" viewBox="0 0 30 30">
      <path d="m14.37541,20.3879l0.6769,-1.44172c-0.65493,-0.65493 -1.27908,-1.34062 -1.86368,-2.05708l-0.03956,-0.04835c0.49669,-0.67251 0.96261,-1.3626 1.39337,-2.06588c1.11645,-1.80654 2.05269,-3.8856 2.70322,-6.09213l0.04395,-0.18021l2.4351,0l0,-1.50765l-6.76904,0l0,-2.63289l-1.50325,0l0,2.63289l-7.15144,0l0,1.50325l2.80871,0c0.79998,2.75597 1.9472,5.16029 3.41529,7.33166l-0.05714,-0.09231c0.32087,-0.39559 0.64614,-0.81756 0.96701,-1.27029c-1.11645,-1.71863 -2.05269,-3.6966 -2.71201,-5.79764l-0.04395,-0.17142l7.04156,0c-1.39776,4.58448 -3.97351,7.95582 -5.95587,10.02169c-2.30323,2.40433 -4.32515,3.61308 -4.34273,3.62627l0.38241,0.64614l0.38241,0.64614c0.08791,-0.05275 2.18455,-1.30546 4.62844,-3.84165c0.4835,-0.50108 0.94503,-1.01536 1.38458,-1.54721c0.70328,0.84393 1.41534,1.60435 2.16258,2.32521l0.01319,0.01319l0,0z"/>
      <path d="m20.95984,13.01229l-1.71863,0l-5.84599,12.79084l1.6527,0l1.71863,-3.76253l6.66355,0l1.71863,3.76253l1.6571,0l-5.84599,-12.79084zm-1.98676,7.52506l-1.51644,0l2.64608,-5.78445l2.64608,5.78445l-3.77572,0z"/>
    </symbol>
    <symbol id="icon-arrow-up" viewBox="0 0 30 30">
      <g transform="translate(0, 3)">
        <path
          fill="none"
          stroke="black"
          stroke-width="2px"
          stroke-linecap="round"
          stroke-linejoin="round"
          d="M10,15L15,10L20,15"/>
      </g>
    </symbol>
    <symbol id="icon-arrow-down" viewBox="0 0 30 30">
      <g transform="translate(0, 7)">
        <path
          fill="none"
          stroke="black"
          stroke-width="2px"
          stroke-linecap="round"
          stroke-linejoin="round"
          d="M10,5L15,10L20,5"/>
      </g>
    </symbol>
    <symbol id="icon-clone" viewBox="0 0 30 30">
      <path d="M 23.214844 3.40625 L 23.214844 5.296875 L 26.375 5.296875 L 26.375 5.300781 C 27.371094 5.304688 28.277344 5.683594 28.925781 6.300781 C 29.574219 6.914062 29.980469 7.761719 29.980469 8.699219 L 29.984375 8.699219 L 29.984375 26.59375 L 29.980469 26.59375 C 29.980469 27.53125 29.574219 28.382812 28.921875 29 C 28.265625 29.613281 27.371094 29.992188 26.375 29.996094 L 26.375 30 L 10.394531 30 L 10.394531 29.996094 C 9.398438 29.992188 8.496094 29.613281 7.84375 28.996094 C 7.195312 28.382812 6.792969 27.535156 6.789062 26.597656 L 6.785156 26.597656 L 6.785156 22.585938 L 3.625 22.585938 L 3.625 22.582031 C 2.632812 22.578125 1.722656 22.199219 1.074219 21.578125 C 0.425781 20.96875 0.0195312 20.121094 0.0195312 19.183594 L 0.015625 19.183594 L 0.015625 3.40625 L 0.0195312 3.40625 C 0.0195312 2.464844 0.429688 1.613281 1.078125 1 C 1.734375 0.386719 2.628906 0.0078125 3.625 0.00390625 L 3.625 0 L 19.605469 0 L 19.605469 0.00390625 C 20.601562 0.0078125 21.503906 0.386719 22.15625 1.003906 C 22.804688 1.617188 23.207031 2.464844 23.210938 3.402344 L 23.214844 3.402344 Z M 20.476562 5.296875 L 20.476562 3.402344 L 20.484375 3.402344 C 20.484375 3.179688 20.382812 2.976562 20.21875 2.824219 C 20.0625 2.675781 19.84375 2.582031 19.609375 2.582031 L 19.609375 2.585938 L 3.625 2.585938 L 3.625 2.582031 C 3.390625 2.582031 3.171875 2.675781 3.011719 2.828125 C 2.855469 2.976562 2.753906 3.183594 2.753906 3.40625 L 2.757812 3.40625 L 2.757812 19.183594 L 2.753906 19.183594 C 2.753906 19.40625 2.855469 19.609375 3.011719 19.761719 C 3.171875 19.910156 3.394531 20.003906 3.628906 20.003906 L 3.628906 20 L 6.789062 20 L 6.789062 8.703125 L 6.792969 8.703125 C 6.796875 7.761719 7.203125 6.910156 7.855469 6.292969 C 8.503906 5.683594 9.398438 5.304688 10.394531 5.300781 L 10.394531 5.296875 Z M 27.242188 26.59375 L 27.242188 8.699219 L 27.25 8.699219 C 27.25 8.476562 27.144531 8.269531 26.988281 8.121094 C 26.828125 7.972656 26.609375 7.875 26.375 7.875 L 26.375 7.882812 L 10.390625 7.882812 L 10.390625 7.875 C 10.15625 7.875 9.941406 7.972656 9.78125 8.121094 C 9.621094 8.269531 9.523438 8.480469 9.523438 8.699219 L 9.527344 8.699219 L 9.527344 26.597656 L 9.523438 26.597656 C 9.523438 26.820312 9.621094 27.023438 9.78125 27.175781 C 9.941406 27.324219 10.160156 27.417969 10.394531 27.417969 L 10.394531 27.414062 L 26.375 27.414062 L 26.375 27.417969 C 26.609375 27.417969 26.828125 27.324219 26.992188 27.171875 C 27.144531 27.023438 27.25 26.816406 27.25 26.59375 Z M 27.242188 26.59375 "/>
    </symbol>
  </defs>
</svg>
