<?xml version="1.0" encoding="utf-8"?>
<svg version="1.1" xmlns="http://www.w3.org/2000/svg" xmlns:xlink="http://www.w3.org/1999/xlink" x="0px" y="0px"
	 viewBox="0 0 34.3 23.4">
<style type="text/css">
	.st0{fill:#443535;}
	.st-logo-1{fill:#F3E111;}
	.st2{fill:#FFFFFF;}
</style>
	<g id="Logo" transform="translate(-1014.093 -79.113)">
			<path class="st-logo-1" d="M1028.9,95.3c-0.1-0.3-0.4-0.4-0.7-0.4c-0.2,0-0.4,0-0.5,0.2h0c-0.1,0.1-0.2,0.2-0.3,0.4
				c-0.1,0.1-0.1,0.3-0.1,0.5c0,0.1,0,0.3,0,0.4v0.2h1.9v-0.3c0-0.2,0-0.3,0-0.5C1029,95.6,1029,95.5,1028.9,95.3z"/>
			<path class="st-logo-1" d="M1024.5,94.5c0-0.3-0.1-0.6-0.3-0.8c-0.3-0.2-0.6-0.3-0.9-0.3h-1l0,2.5h0.9c0.2,0,0.3,0,0.5,0
				c0.2,0,0.3-0.1,0.4-0.2c0.2-0.1,0.3-0.2,0.4-0.4C1024.5,95,1024.5,94.8,1024.5,94.5z"/>
			<path class="st-logo-1" d="M1035.6,97.1c-0.2,0.1-0.3,0.1-0.5,0.2c-0.2,0.1-0.4,0.1-0.6,0.2c-0.1,0.1-0.2,0.2-0.3,0.3
				c-0.1,0.2-0.1,0.3-0.1,0.5c0,0.2,0,0.5,0.2,0.7c0.1,0.2,0.4,0.3,0.6,0.2c0.3,0,0.5-0.1,0.7-0.3c0.2-0.2,0.3-0.4,0.3-0.7v-1.4
				C1035.8,96.9,1035.7,97,1035.6,97.1L1035.6,97.1z"/>
			<path class="st-logo-1" d="M1019,91.2l-3,4.9l1.9,5.1h28.3V91.2H1019z M1024.7,99.7c-0.1-0.1-0.1-0.3-0.2-0.4c0-0.2-0.1-0.4-0.1-0.6
				l-0.1-1.1c0-0.2-0.1-0.4-0.1-0.6c-0.1-0.1-0.1-0.2-0.2-0.3c-0.1-0.1-0.2-0.1-0.3-0.1c-0.1,0-0.2,0-0.4,0h-1.2v3.2l0,0h-0.9v-7.1
				h2.3c0.5,0,1,0.1,1.3,0.5c0.3,0.3,0.5,0.8,0.5,1.3c0,0.4-0.1,0.8-0.3,1.2c-0.2,0.3-0.5,0.6-0.8,0.6v0c0.3,0,0.5,0.2,0.7,0.4
				c0.2,0.2,0.3,0.5,0.3,0.8l0.1,1.2c0,0.3,0,0.5,0.1,0.8c0,0.1,0.1,0.3,0.3,0.3H1024.7z M1030,97.2h-2.8c0,0.3,0,0.5,0,0.7
				c0,0.2,0.1,0.4,0.1,0.6c0.1,0.2,0.2,0.4,0.3,0.5c0.2,0.1,0.4,0.2,0.6,0.2c0.2,0,0.3,0,0.5-0.1c0.1-0.1,0.2-0.2,0.3-0.3
				c0.1-0.1,0.1-0.3,0.1-0.4c0-0.1,0-0.3,0-0.4h0.8c0,0.2,0,0.4-0.1,0.6c-0.1,0.2-0.2,0.4-0.3,0.6c-0.1,0.2-0.3,0.4-0.6,0.5
				c-0.3,0.1-0.6,0.2-0.9,0.2c-0.6,0-1.1-0.2-1.4-0.7h0c-0.3-0.6-0.5-1.3-0.4-2.1c0-0.4,0-0.7,0.1-1.1c0-0.3,0.1-0.6,0.3-0.9
				c0.1-0.3,0.3-0.5,0.6-0.7c0.6-0.3,1.3-0.3,1.9,0c0.2,0.1,0.4,0.4,0.5,0.6c0.1,0.2,0.2,0.5,0.2,0.8c0,0.3,0.1,0.6,0.1,0.9V97.2z
				 M1032.9,95.1h-0.9v3.4c0,0.2,0,0.3,0.1,0.5c0.1,0.1,0.3,0.2,0.4,0.1c0.1,0,0.2,0,0.3,0c0,0,0,0,0.1,0v0.7
				c-0.2,0-0.4,0.1-0.7,0.1c-0.3,0-0.6-0.1-0.8-0.2v0c-0.2-0.2-0.3-0.5-0.2-0.8v-3.7h-0.8v-0.7h0.8v-1.5h0.8v1.5h0.9V95.1z
				 M1037.2,99.7L1037.2,99.7c-0.1,0-0.2,0-0.2,0c-0.2,0-0.3,0-0.5,0c-0.1,0-0.2,0-0.2-0.1c-0.1-0.1-0.1-0.1-0.2-0.2
				c-0.1-0.1-0.1-0.3-0.1-0.4h0c-0.1,0.2-0.3,0.4-0.6,0.6c-0.2,0.1-0.5,0.2-0.7,0.2c-0.4,0-0.8-0.1-1.1-0.4l0,0
				c-0.3-0.3-0.4-0.7-0.4-1.1c0-0.3,0.1-0.7,0.2-0.9c0.2-0.3,0.4-0.4,0.8-0.5l1.1-0.3c0.2,0,0.4-0.1,0.5-0.3
				c0.1-0.2,0.1-0.3,0.1-0.5c0-0.5-0.3-0.8-0.9-0.8c-0.2,0-0.4,0-0.5,0.1c-0.1,0.1-0.2,0.2-0.3,0.3c0,0.1-0.1,0.2-0.1,0.3
				c0,0.1,0,0.2,0,0.3v0h-0.8c0-0.5,0.1-1,0.4-1.3c0.4-0.3,0.9-0.5,1.4-0.4c0.3,0,0.6,0,0.9,0.1c0.2,0.1,0.4,0.2,0.5,0.4
				c0.1,0.1,0.2,0.3,0.2,0.5c0,0.2,0,0.4,0,0.5v3c0,0.1,0,0.2,0,0.3c0,0.1,0.1,0.1,0.2,0.1c0.1,0,0.1,0,0.2,0V99.7z M1037.9,99.7
				v-5.3h0.8v5.3H1037.9z M1037.9,93.6v-1h0.8v1l0,0H1037.9z M1040.8,99.7h-0.8v-7.1h0.8V99.7z"/>
		<path id="Combined_Shape" class="st2" d="M1035.2,89.4h-2.2l3.3-9.4h2.3l1.2,6.5l-1.7,2.9h0l-0.2-1.3h-2.3L1035.2,89.4
			L1035.2,89.4z M1037.2,83.5l-0.8,2.4h1.1L1037.2,83.5L1037.2,83.5z M1023.7,89.4h-2.2l3.3-9.4h2.3l1.7,9.4h-2.2l-0.2-1.3h-2.3
			L1023.7,89.4L1023.7,89.4z M1025.7,83.5l-0.8,2.4h1.1L1025.7,83.5L1025.7,83.5z M1044,89.4l-1.1-2.7l-1.5,2.7h-2.4l2.7-4.7
			l-1.9-4.7h2.4l1.1,2.7l1.5-2.7h2.4l-2.7,4.7l1.9,4.7H1044z M1029.9,89.4l0.3-4l-2.1-5.4h2.4l1,2.9l1.6-2.9h2.4l-3.1,5.4l-0.3,4
			H1029.9z M1019.7,89.4l-1.6-4.2l-0.4,4.2h-2.1l0.8-9.4h2l1.6,4.2l0.4-4.2h2.1l-0.5,5.7l-1.3,3.7H1019.7z"/>
	</g>
</svg>
