<svg xmlns="http://www.w3.org/2000/svg"
     x="0px"
     y="0px"
     viewBox="0 0 325.359 89.261">
  <g transform="translate(0.015 -0.185)">
    <path d="M48.33,104H83.512V87.921c0-.131-.048-.186-.131-.213a2.625,2.625,0,0,0-.907.247A164.314,164.314,0,0,0,55.766,99.632c-2.46,1.32-4.873,2.777-7.251,4.151-.151.11-.117.021-.186.22Z" transform="translate(-15.08 -27.877)" fill="#fccd09"/>
    <path d="M200.558,47.1a33.782,33.782,0,0,0,2.4,13.5,28,28,0,0,0,2.493,4.761,28.77,28.77,0,0,0,5.1,5.758l1,.786a27.3,27.3,0,0,0,8.327,4.31c.936.287,1.851.533,2.9.765a33.464,33.464,0,0,0,8.778.779,23.815,23.815,0,0,0,15.3-6.141A12.615,12.615,0,0,1,248,70.5c0,.779.881,5.048.9,5.711h12.473V17.831H248.906c-.1,1.134-1.12,6.141-1.148,6.858L246.222,23.3a21.7,21.7,0,0,0-3.484-2.4c-.348-.184-.567-.321-.949-.512-5.683-2.848-12.152-3.1-18.423-1.851a30.67,30.67,0,0,0-6.865,2.268,29.25,29.25,0,0,0-5.629,3.579l-1.434,1.25a31.233,31.233,0,0,0-3.784,4.529,29.886,29.886,0,0,0-2.568,4.775A32.094,32.094,0,0,0,200.558,47.1Zm29-14.884h1.933A14.713,14.713,0,0,1,246.16,46.9v1.919a14.722,14.722,0,0,1-14.672,14.686h-1.933a14.734,14.734,0,0,1-14.686-14.686V46.9a14.734,14.734,0,0,1,14.686-14.686Zm57.9,14.72a3.274,3.274,0,0,1-.512.949c-.2.321-.369.6-.567.915l-5.731,9.092c-.779,1.264-1.516,2.432-2.3,3.648l-8.012,12.773a14.679,14.679,0,0,0-1.134,1.885h17.856l7.015-11.892c.4-.663.779-1.311,1.182-2l1.168-2c.335.232,6.257,9.14,6.749,9.891l2.281,3.347c.4.533.731,1.086,1.113,1.653.765,1.161.451,1.011,1.762,1.011h16.79c-.068-.253-.116-.219-.28-.451l-5.861-8.661c-.417-.628-.785-1.236-1.236-1.851l-2.466-3.634c-.833-1.25-1.646-2.432-2.466-3.661-.4-.6-.82-1.182-1.23-1.783L305.724,47.5a2.193,2.193,0,0,0-.164-.246l-.184-.232,4.945-7.282c.833-1.25,1.633-2.4,2.466-3.648,2.6-3.914,5.41-7.89,8.006-11.81l4.317-6.441H307.172c-.082.321-6,9.3-6.639,10.239l-4.044,6.23c-.362-.246-5.574-7.459-6.175-8.258L286.6,20.98c-.417-.581-.82-1.052-1.229-1.633l-.929-1.277c-.164-.212-.164-.219-.5-.232-1.844-.1-4,0-5.874,0h-11.66c.266.512,3.415,4.775,3.88,5.417l3.976,5.492c.232.3.43.581.635.9,1.346,1.967,3.21,4.344,4.631,6.373,2.3,3.265,4.877,6.708,7.227,9.98ZM163.378,71.152c0,.232-1.667,4.01-1.9,4.542l-5.307,12.459a5.141,5.141,0,0,0-.451,1.168H171.37l8.859-20.069c.171-.4.362-.765.512-1.134s.321-.779.5-1.12c.348-.717.628-1.5.97-2.2l6.94-15.656c.895-1.995,2.049-4.775,2.951-6.66l9.406-21.237c.171-.4.362-.779.512-1.134s.321-.779.5-1.12A9.14,9.14,0,0,0,203,17.845H186.132c-.034.4-3.545,8.443-3.661,8.73l-1.865,4.344c-1.079,2.732-2.534,5.881-3.7,8.689-.587,1.414-1.236,2.91-1.865,4.331l-.929,2.179c-.3.717-2.63,6.032-2.746,6.544h-.164c-.034-.383-3.292-7.657-3.716-8.675-1.769-4.249-3.812-8.764-5.629-13.026l-5.191-11.94a7.293,7.293,0,0,1-.464-1.168h-17.2c.02.266,1.277,2.965,1.462,3.347L145.8,32.824c.266.553.567,1.134.779,1.667l.779,1.68c1,2.049,2.049,4.611,3.047,6.66l.779,1.667c.2.512.485,1.079.745,1.612l3.047,6.66c.164.321.232.519.383.847L158.8,61.1c.635,1.537,1.96,4.262,2.7,5.861ZM.11.31V76.2l16.066.014c.43-.048.335-.171.321-.663-.082-4.816,0-10.321,0-15.157V28.1a2.066,2.066,0,0,1,.451.533c.171.219.287.369.464.587.321.383.6.745.9,1.134l6.3,8.047c.314.417.581.717.895,1.148L43.492,62.5a26.955,26.955,0,0,0,1.865,2.3,3.655,3.655,0,0,0,.669-.3l4.734-2.2c.5-.2.895-.4,1.352-.6,3.21-1.4,6.564-2.814,9.843-4.01L66.423,56.2c.287-.082.5-.137.765-.219.287-.082.519-.171.813-.246V1.943c0-1.148.184-1.53-.246-1.633H51.621V47.586l-26.175-33.9c-.4-.519-.765-.984-1.182-1.5L20.869,7.756c-1.516-1.851-3.6-4.652-5.1-6.633A2.891,2.891,0,0,1,15.185.31ZM74.2,47.1a33.783,33.783,0,0,0,2.4,13.5,30.1,30.1,0,0,0,2.493,4.761,28.77,28.77,0,0,0,5.1,5.758l1,.786a27.452,27.452,0,0,0,8.327,4.31c.936.287,1.851.533,2.91.765a33.361,33.361,0,0,0,8.764.779,23.786,23.786,0,0,0,15.3-6.141,13.576,13.576,0,0,1,1.168-1.12c0,.779.881,5.048.895,5.711h12.473V17.831H122.551c-.1,1.134-1.12,6.141-1.148,6.858L119.867,23.3a21.7,21.7,0,0,0-3.484-2.4c-.348-.184-.567-.321-.949-.512-5.683-2.848-12.152-3.1-18.423-1.851a30.61,30.61,0,0,0-6.858,2.268,29.564,29.564,0,0,0-5.642,3.579l-1.434,1.25a31.674,31.674,0,0,0-3.784,4.529,29.887,29.887,0,0,0-2.568,4.775A32.36,32.36,0,0,0,74.2,47.1Zm29-14.884h1.933A14.713,14.713,0,0,1,119.812,46.9v1.919A14.722,14.722,0,0,1,105.14,63.508h-1.933A14.722,14.722,0,0,1,88.534,48.822V46.9a14.718,14.718,0,0,1,14.672-14.686Z" transform="translate(0 0)"/>
  </g>
</svg>
