<?xml version="1.0" encoding="utf-8"?>
<!-- Generator: Adobe Illustrator 23.0.1, SVG Export Plug-In . SVG Version: 6.00 Build 0)  -->
<svg version="1.1" id="Слой_1" xmlns="http://www.w3.org/2000/svg" xmlns:xlink="http://www.w3.org/1999/xlink" x="0px" y="0px"
	 viewBox="0 0 30 30" style="enable-background:new 0 0 30 30;" xml:space="preserve">
<path d="M25.4,9.1h-2.2c-0.3,0-0.5,0.2-0.5,0.5v0.5l-6-0.4l-0.1-0.2c0-0.3-0.3-1.5-0.7-1.5h-3c-0.1,0-0.2,0-0.2,0c0,0-0.1,0-0.1,0
	c0,0-0.1,0-0.1,0.1c-0.1,0.1-0.2,0.2-0.2,0.4V14c-2.6,0.4-8.2,0.7-10.8,1l10.8,1v5.5c0,0.1,0.1,0.3,0.2,0.4c0,0,0.1,0.1,0.1,0.1
	c0.1,0,0.1,0,0.2,0c0,0,0.1,0,0.1,0h3c0.4,0,0.7-1.2,0.7-1.5l0.1-0.2l6-0.4v0.5c0,0.3,0.2,0.5,0.5,0.5h2.2c0.3,0,0.5-0.2,0.5-0.5
	V9.6C25.9,9.3,25.7,9.1,25.4,9.1L25.4,9.1z M22.7,18.6L16.6,19l-0.8,0.1l-0.3,0.8L15.4,20l-0.1,0.2v0.2c0,0.1,0,0.1,0,0.2h-1.6V9.3
	h1.6c0,0.1,0,0.2,0,0.2v0.2l0.1,0.2l0.1,0.2l0.3,0.7l0.8,0.1l6.1,0.4L22.7,18.6z M24.8,19.6h-1v-9.2h1V19.6z"/>
</svg>
