<?xml version="1.0" encoding="utf-8"?>
<svg xmlns="http://www.w3.org/2000/svg"
     x="0px"
     y="0px"
     viewBox="0 0 30 30">

  <path d="M23.8,15c0,4.8-3.9,8.7-8.7,8.7c0,0,0,0,0,0h-0.4c-4.8-0.2-8.6-4.3-8.4-9.1c0.2-4.8,4.3-8.6,9.1-8.4
			c2.3,0.1,4.4,1.1,6,2.7V7c0-0.4,0.3-0.8,0.8-0.8s0.8,0.3,0.8,0.8v4.1c0,0.4-0.3,0.8-0.7,0.8c0,0,0,0,0,0h-4.1
			c-0.4,0-0.8-0.3-0.8-0.8c0-0.4,0.3-0.8,0.8-0.8h2.4c-1.4-1.6-3.4-2.5-5.5-2.5h0c-4,0-7.2,3.2-7.2,7.2c0,4,3.2,7.2,7.2,7.2
			s7.2-3.2,7.2-7.2c0-0.4,0.3-0.8,0.8-0.8h0c0.2,0,0.4,0.1,0.5,0.2C23.7,14.6,23.8,14.8,23.8,15L23.8,15z"/>
</svg>
