<?xml version="1.0" encoding="utf-8"?>
<svg xmlns="http://www.w3.org/2000/svg"
     x="0px"
     y="0px"
     viewBox="0 0 30 30">

<path d="M6,18.2c0,0-0.1,0-0.1,0c-0.6,0-1.3-0.3-1.7-0.8c-0.5-0.5-0.7-1.1-0.7-1.8c0-0.6,0.3-1.2,0.7-1.7
	c0.4-0.5,1.1-0.8,1.8-0.8c0.7,0,1.4,0.3,1.8,0.8c0.4,0.4,0.7,1.1,0.6,1.7c0,0.6-0.3,1.2-0.7,1.7c0,0,0,0,0,0
	C7.3,17.9,6.6,18.2,6,18.2z M6,14.5C6,14.5,6,14.5,6,14.5c-0.4,0-0.7,0.1-0.9,0.4c-0.2,0.2-0.3,0.5-0.3,0.8c0,0.3,0.1,0.6,0.3,0.8
	c0.2,0.2,0.5,0.4,0.8,0.4c0.3,0,0.6-0.1,0.8-0.3C7,16.3,7.1,16,7.1,15.7c0-0.3-0.1-0.6-0.3-0.8C6.6,14.7,6.3,14.5,6,14.5z"/>
  <path d="M15.3,18.2c0,0-0.1,0-0.1,0c-0.6,0-1.3-0.3-1.7-0.8c-0.5-0.5-0.7-1.1-0.7-1.8c0-0.6,0.3-1.2,0.7-1.7
	c0.4-0.5,1.1-0.8,1.8-0.8c0.7,0,1.4,0.3,1.8,0.8c0.4,0.4,0.7,1.1,0.6,1.7c0,0.6-0.3,1.2-0.7,1.7c0,0,0,0,0,0
	C16.5,17.9,15.9,18.2,15.3,18.2z M15.3,14.5C15.3,14.5,15.2,14.5,15.3,14.5c-0.4,0-0.7,0.1-0.9,0.4c-0.2,0.2-0.3,0.5-0.3,0.8
	c0,0.3,0.1,0.6,0.3,0.8c0.2,0.2,0.5,0.4,0.8,0.4c0.3,0,0.6-0.1,0.8-0.3c0.2-0.2,0.3-0.5,0.3-0.9c0-0.3-0.1-0.6-0.3-0.8
	C15.8,14.7,15.5,14.5,15.3,14.5z"/>
  <path d="M24.5,18.2C24.5,18.2,24.4,18.2,24.5,18.2c-0.7,0-1.4-0.3-1.8-0.8C22.2,17,22,16.3,22,15.7
	c0-0.6,0.3-1.2,0.7-1.7c0.4-0.5,1.1-0.8,1.8-0.8c0.7,0,1.4,0.3,1.8,0.8c0.4,0.4,0.7,1.1,0.6,1.7c0,0.6-0.3,1.2-0.7,1.7c0,0,0,0,0,0
	C25.7,17.9,25.1,18.2,24.5,18.2z M24.5,14.5C24.5,14.5,24.5,14.5,24.5,14.5c-0.4,0-0.7,0.1-0.9,0.4c-0.2,0.2-0.3,0.5-0.3,0.8
	c0,0.3,0.1,0.6,0.3,0.8c0.2,0.2,0.5,0.4,0.8,0.4c0.3,0,0.6-0.1,0.8-0.3c0.2-0.2,0.3-0.5,0.3-0.9c0-0.3-0.1-0.6-0.3-0.8
	C25,14.7,24.8,14.5,24.5,14.5z"/>
</svg>
