<?xml version="1.0" encoding="utf-8"?>
<svg xmlns="http://www.w3.org/2000/svg"
     x="0px"
     y="0px"
     viewBox="0 0 30 30">

  <path d="M24,12.8L24,12.8l-1.5,0c-0.2-0.5-0.4-1-0.6-1.5l1.1-1.1c0.4-0.4,0.4-1,0-1.4v0l-1.7-1.7c0,0-0.1-0.1-0.2-0.1
		c-0.1-0.1-0.2-0.1-0.3-0.1c-0.1,0-0.2-0.1-0.3,0c0,0,0,0-0.1,0h0c0,0,0,0,0,0c-0.1,0-0.2,0-0.3,0.1c0,0-0.1,0-0.1,0.1
		c-0.1,0-0.1,0.1-0.2,0.1l-1.1,1.1L18.3,8c-0.2-0.1-0.5-0.2-0.7-0.3c-0.1,0-0.2-0.1-0.4-0.1V6c0-0.6-0.4-1-1-1h0h-2.4h0
		c-0.3,0-0.5,0.1-0.7,0.3c0,0-0.1,0.1-0.1,0.2c0,0,0,0,0,0.1c-0.1,0.2-0.2,0.3-0.2,0.5v1.5h0c-0.1,0-0.2,0.1-0.4,0.1
		c-0.2,0.1-0.4,0.2-0.6,0.3c-0.2,0.1-0.3,0.1-0.5,0.2l-1.1-1.1v0C10.1,7,10,6.9,9.9,6.9c0,0,0,0,0,0c0,0,0,0,0,0
		c-0.1,0-0.3-0.1-0.4-0.1c0,0,0,0,0,0c0,0,0,0,0,0C9.2,6.8,9,6.9,8.8,7.1L7.1,8.8c-0.4,0.4-0.4,1,0,1.4l1.1,1.1
		c-0.3,0.5-0.5,1-0.6,1.5H6c0,0,0,0,0,0h0c-0.6,0-1,0.4-1,1v2.4c0,0.6,0.4,1,1,1h1.5c0.1,0.3,0.2,0.5,0.3,0.8
		c0.1,0.2,0.2,0.5,0.3,0.7l-1.1,1.1c-0.4,0.4-0.4,1,0,1.4l1.7,1.7c0.2,0.2,0.4,0.3,0.7,0.3c0,0,0,0,0,0s0,0,0,0
		c0.3,0,0.5-0.1,0.7-0.3l1.1-1.1c0.5,0.3,1,0.5,1.5,0.6V24c0,0.6,0.4,1,1,1h2.4c0,0,0,0,0,0h0c0.6,0,1-0.4,1-1v-1.5
		c0.5-0.2,1-0.4,1.5-0.6l1.1,1.1c0.2,0.2,0.4,0.3,0.7,0.3c0,0,0,0,0,0s0,0,0,0c0.3,0,0.5-0.1,0.7-0.3l1.7-1.7c0.4-0.4,0.4-1,0-1.4
		l-1.1-1.1c0.1-0.2,0.2-0.3,0.2-0.5c0.1-0.2,0.2-0.3,0.2-0.5c0.1-0.2,0.1-0.3,0.2-0.5H24h0c0.6,0,1-0.4,1-1v-2.4
		C25,13.2,24.6,12.8,24,12.8z M21.7,16.2l-0.2,0.7c-0.1,0.4-0.3,0.9-0.5,1.3l-0.3,0.7l0.5,0.5l1.1,1.1l-1.7,1.7l-1.1-1.1l-0.5-0.5
		L18.2,21c-0.4,0.2-0.8,0.4-1.3,0.5l-0.7,0.2V24h-2.4v-2.3l-0.7-0.2c-0.4-0.1-0.9-0.3-1.3-0.5l-0.7-0.4l-1.6,1.6l-1.7-1.7l1.1-1.1
		l0.5-0.5L9,18.2c-0.2-0.4-0.4-0.8-0.5-1.3l-0.2-0.7H6v-2.4h2.3l0.2-0.7c0.1-0.4,0.3-0.9,0.5-1.3l0.4-0.7L7.8,9.5l1.7-1.7l1.1,1.1
		l0.5,0.5L11.8,9c0.4-0.2,0.8-0.4,1.3-0.5l0.7-0.2V6h2.4v2.3l0.7,0.2c0.4,0.1,0.9,0.3,1.3,0.5l0.7,0.3l0.5-0.5l1.1-1.1l1.7,1.7
		l-1.1,1.1l-0.5,0.5l0.3,0.7c0.2,0.4,0.4,0.8,0.5,1.3l0.2,0.7H24l0,2.4H21.7z"/>
  <path d="M16.5,11.3c-1-0.4-2.1-0.4-3.1,0c-0.5,0.2-0.9,0.5-1.3,0.9c-1.5,1.6-1.4,4.2,0.3,5.7c1.5,1.4,3.8,1.4,5.4,0
		c0.4-0.4,0.7-0.8,0.9-1.3c0.4-1,0.4-2.1,0-3.1C18.3,12.5,17.5,11.7,16.5,11.3z M15,17.7c-1.5,0-2.7-1.2-2.7-2.7
		c0-1.5,1.2-2.7,2.7-2.7c1.5,0,2.7,1.2,2.7,2.7C17.7,16.5,16.5,17.7,15,17.7z"/>
</svg>
