<?xml version="1.0" encoding="utf-8"?>
<svg xmlns="http://www.w3.org/2000/svg"
     x="0px"
     y="0px"
     viewBox="0 0 30 30">

  <path d="M15.1,18.2c0,0-0.1,0-0.1,0c-1.7,0-3.2-1.5-3.1-3.3c0-0.8,0.3-1.6,0.9-2.1c0.6-0.6,1.4-1,2.3-1
	c0.9,0,1.7,0.3,2.3,1c0.6,0.6,0.9,1.4,0.8,2.2c0,0.8-0.3,1.6-0.9,2.2c0,0,0,0,0,0C16.7,17.9,15.9,18.2,15.1,18.2z M15.1,13.1
	C15.1,13.1,15.1,13.1,15.1,13.1c-0.6,0-1.1,0.2-1.4,0.6c-0.3,0.4-0.5,0.8-0.5,1.3c0,1,0.8,1.9,1.9,1.9c0.5,0,1-0.2,1.3-0.5
	c0.3-0.4,0.5-0.9,0.5-1.4c0-0.5-0.2-1-0.5-1.3C16,13.3,15.6,13.1,15.1,13.1z"/>
</svg>
