<svg id="icon-time-picker" xmlns="http://www.w3.org/2000/svg" width="30" height="30" viewBox="0 0 30 30">
  <g transform="translate(-385.65 -27.03)">
    <path d="M400.65,33.03a8.954,8.954,0,0,0-6.36,2.64,8.781,8.781,0,0,0-.85.98c-.09.12-.17.23-.25.35-.16.24-.31.49-.45.74a8.987,8.987,0,0,0,0,8.58c.14.25.29.5.45.74.08.12.16.23.25.35a8.781,8.781,0,0,0,.85.98,9,9,0,1,0,6.36-15.36Zm0,16.5a7.5,7.5,0,1,1,7.5-7.5A7.5,7.5,0,0,1,400.65,49.53Z"/>
    <path d="M403.65,41.28H401.4V37.03a.75.75,0,1,0-1.5,0v5a.743.743,0,0,0,.75.75h3a.75.75,0,0,0,0-1.5Z"/>
  </g>
</svg>
