<?xml version="1.0" encoding="utf-8"?>
<!-- Generator: Adobe Illustrator 23.0.1, SVG Export Plug-In . SVG Version: 6.00 Build 0)  -->
<svg version="1.1" id="Pin" xmlns="http://www.w3.org/2000/svg" xmlns:xlink="http://www.w3.org/1999/xlink" x="0px" y="0px"
	 viewBox="0 0 30 30" style="enable-background:new 0 0 30 30;" xml:space="preserve">
<g>
	<path d="M24.1,12.6c0.2,0.2,0.5,0.2,0.7,0l1.3-1.3c0.2-0.2,0.2-0.5,0-0.7l-7.7-7.7c-0.2-0.2-0.5-0.2-0.7,0l-1.3,1.3
		c-0.2,0.2-0.2,0.5,0,0.7L24.1,12.6z"/>
	<path d="M22.9,13.1L22.9,13.1l0.4-0.4l-7-7L12,9.6l-0.2-0.1c-0.2-0.2-1.3-0.9-1.5-0.6L8.1,11C8.1,11.1,8,11.1,8,11.2c0,0,0,0,0,0.1
		c0,0,0,0.1,0,0.1c0,0.1,0,0.3,0.1,0.4l3.9,3.9C10.3,17.8,6.6,22,5,24.1l8.3-7l0.1,0.1c-0.1,0.5-0.2,1-0.2,1.5
		c0,3.6,2.9,6.5,6.5,6.5c3.6,0,6.5-2.9,6.5-6.5C26.2,16.5,24.9,14.3,22.9,13.1z M25.3,19.6c-0.4,2.8-2.8,4.8-5.6,4.8
		c-3.1,0-5.7-2.6-5.7-5.7c0-0.3,0-0.6,0.1-0.9c0.5-3.1,3.4-5.2,6.5-4.7S25.8,16.5,25.3,19.6z"/>
	<polygon points="21.7,15.8 19.7,17.8 17.7,15.8 16.7,16.7 18.8,18.7 16.7,20.8 17.7,21.7 19.7,19.7 21.7,21.7 22.6,20.8 20.6,18.7 
		22.6,16.7 	"/>
</g>
</svg>
