<svg xmlns="http://www.w3.org/2000/svg" width="30" height="30">
    <g data-name="warning">
        <path data-name="Многоугольник 59" d="M11.155 1.339a1 1 0 0 1 1.691 0l10.185 16.127A1 1 0 0 1 22.186 19H1.814a1 1 0 0 1-.845-1.534z" transform="translate(3 4)" style="fill:#f3e111"/>
        <path data-name="Объединение 148" d="M-16751.7 7370.5a.3.3 0 0 1-.3-.3v-1.4a.3.3 0 0 1 .3-.3h1.395a.3.3 0 0 1 .3.3v1.4a.3.3 0 0 1-.3.3zm0-3.5a.3.3 0 0 1-.3-.3v-4.4a.3.3 0 0 1 .3-.3h1.395a.3.3 0 0 1 .3.3v4.4a.3.3 0 0 1-.3.3z" transform="translate(16766 -7350.5)" style="fill:#2b2b2b"/>
        <path data-name="Прямоугольник 17701" style="fill:none" d="M0 0h30v30H0z"/>
    </g>
</svg>
